<?xml version="1.0" encoding="UTF-8"?>
<svg width="123px" height="32px" viewBox="0 0 123 32" version="1.1" xmlns="http://www.w3.org/2000/svg" xmlns:xlink="http://www.w3.org/1999/xlink">
    <title>Logo/Perrin &amp; Rowe/Black</title>
    <defs>
        <path d="M60.4145487,0.388694659 C61.5397429,-0.200835274 62.8953625,-0.11405168 63.9367656,0.610142451 C65.0290419,1.70541126 65.3671987,3.35130701 64.7896389,4.79071766 C63.7871387,6.79571794 62.1831385,8.42964354 60.1960935,9.47403921 L60.1960935,9.47403921 L60.1842168,9.5274373 C60.1783253,9.58214463 60.1901084,9.63937692 60.2170412,9.68650939 C60.2529517,9.75533776 60.315795,9.80321836 60.3876159,9.82117359 C62.1382504,10.2939945 63.9966164,9.66855416 65.1008628,8.23512859 L65.1008628,8.23512859 L66.6061093,6.26005369 C67.4320497,5.12887442 68.5392887,4.23410564 69.8200948,3.66552347 C71.2595055,2.96526964 72.9502893,3.0251204 74.3388268,3.81515036 C76.0864688,4.92238932 76.6520584,7.19971053 75.625618,8.99523317 C75.1318493,9.77628552 74.1024163,10.0186811 73.3153789,9.53388996 C72.5283414,9.04909885 72.2739757,8.02565095 72.7497892,7.23262845 C73.2226102,6.43661341 74.2460581,6.17327009 75.0450657,6.64010598 C74.7278567,6.4515761 75.2186329,5.92488946 75.0749911,5.58074762 C74.9343418,5.24259086 74.6560358,4.97924754 74.3089014,4.85954603 C73.5039087,4.45555343 72.5433041,4.5483221 71.8280876,5.0869789 C70.1343113,6.37077758 68.485423,7.60669566 66.9592287,9.07902423 C64.8734299,11.1797857 61.5995937,11.5508604 59.0948396,9.97678555 C53.6394433,11.4880171 50.3506443,17.0391746 51.6553908,22.5544216 C52.4753461,25.7594295 54.9172569,28.3000941 58.0923394,29.2427435 C61.267422,30.1824003 64.717818,29.3654375 67.1507511,27.1180417 C67.1597288,27.1120566 67.1657138,27.1060715 67.1746914,27.0970939 C66.7916466,26.6931013 66.3607212,26.1215266 65.8130868,25.2626683 C64.9153255,23.8651532 63.7631984,21.2975558 63.3681835,19.7414362 C63.2574596,19.2985406 63.0180565,18.6341972 62.8115714,17.3294508 C62.6649371,16.4227118 61.7911161,14.2411518 60.7287652,13.2206964 C58.7596754,13.9628458 57.3711378,15.7254505 57.0898393,17.8082568 C56.8085408,19.8940556 57.6913394,21.9678842 59.3940934,23.2038023 L59.3940934,23.2038023 L59.0409739,23.7484442 C57.1796154,22.4436977 56.1412048,20.2561527 56.3057944,17.9848165 C56.470384,15.7164729 57.8289961,13.6905249 59.8609292,12.667077 L59.8609292,12.667077 L59.8699068,12.6610919 C59.2773844,12.4306665 58.4544365,12.3588456 57.065899,12.388771 L57.065899,12.388771 L57.0479438,12.3827859 L57.1556751,11.676547 C58.8045634,11.6795395 60.0704069,11.8171963 61.0130563,12.0595918 C64.4036015,10.6291588 68.3357961,12.5473755 70.3587516,15.6296893 C72.3846996,18.7090106 72.214125,22.745944 69.9188485,25.6277579 C69.915856,25.633743 69.9128635,25.6367355 69.9098709,25.6427206 C69.915856,25.6576833 69.9218411,25.6666609 69.9278262,25.678631 C71.3911771,28.455706 74.162267,27.7614373 75.146812,25.5469594 C75.4819762,24.7868548 75.8111553,23.8262502 75.8021777,22.5514291 L75.8021777,22.5514291 L76.3917077,22.6920784 C76.777745,24.293086 75.7453195,26.98637 74.1113939,27.9200418 C72.4206101,28.8806464 70.0984008,28.8626912 68.5542513,28.1055791 C68.3597364,28.0068254 68.1741991,27.9080716 67.9916542,27.7913627 C67.9886617,27.7943552 67.9856692,27.7943552 67.9856692,27.7973477 C66.4774302,29.2158106 63.5866387,30.0656913 62.6739147,30.2422511 C59.0768844,31.0262959 55.3272346,30.0986092 52.5561446,27.698594 C50.9910474,26.1723997 49.9496443,24.1973248 49.569592,22.0456902 C49.0010098,19.7354511 49.4349278,17.2875552 50.7636145,15.3124803 C52.7177417,12.7388979 55.2763614,10.6949946 58.2210186,9.36331531 L58.2210186,9.36331531 L58.218026,9.36032277 C56.9791154,8.01966587 56.5062944,6.13735964 56.9731303,4.36876984 C57.4878468,2.60317258 58.7417201,1.15179178 60.4145487,0.388694659 Z M66.6899003,13.1039875 C65.3791688,12.3468754 63.8140716,12.1613381 62.3626908,12.5982486 C63.1347655,13.0800472 64.7357732,15.0012564 65.9806689,17.2336895 C66.5672063,18.2780852 66.9113481,19.6576451 67.4440198,21.0282274 C67.9198333,22.2581604 68.6500126,23.5658994 69.197647,24.4846085 C70.4425427,22.662153 70.8824457,20.4177497 70.4096247,18.2661151 C69.9368038,16.1025103 68.5931543,14.2381593 66.6899003,13.1039875 Z M76.7274704,15.5800132 L76.7274704,15.6428565 C76.6077689,15.6428565 76.5868211,15.6697893 76.5868211,15.7984684 L76.5868211,17.7286553 L78.3434408,17.7286553 C78.4571572,17.7286553 78.48409,17.6897523 78.48409,17.5610732 L78.5499259,17.5610732 L78.5499259,18.1655658 L78.48409,18.1655658 C78.48409,18.0847673 78.4571572,18.0428717 78.3434408,18.0428717 L76.0930524,18.0428717 L76.0960449,17.9800285 C76.2157464,17.9800285 76.2366942,17.9530956 76.2366942,17.8244165 L76.2366942,15.7984684 C76.2366942,15.6697893 76.2157464,15.6428565 76.0960449,15.6428565 L76.0960449,15.5800132 L76.7274704,15.5800132 Z M108.071909,15.5470953 C108.936752,15.5470953 109.484387,16.1156774 109.484387,16.8129387 C109.484387,17.5012224 108.936752,18.0787822 108.071909,18.0787822 C107.207066,18.0787822 106.659431,17.5012224 106.659431,16.8129387 C106.659431,16.1156774 107.207066,15.5470953 108.071909,15.5470953 Z M84.6750521,15.5470953 C85.536903,15.5470953 86.0875299,16.1156774 86.0875299,16.8129387 C86.0875299,17.5012224 85.536903,18.0787822 84.6750521,18.0787822 C83.8132012,18.0787822 83.2625743,17.5012224 83.2625743,16.8129387 C83.2625743,16.1156774 83.8132012,15.5470953 84.6750521,15.5470953 Z M9.42170579,15.5797139 L9.42170579,15.6425572 C9.36784011,15.6425572 9.29302667,15.6575199 9.29302667,15.7113856 C9.29302667,15.7502886 9.31696697,15.7832065 9.33192966,15.825102 L9.33192966,15.825102 L10.2925343,17.8660128 C10.313482,17.9198784 10.3493925,17.9797292 10.4661015,17.9797292 L10.4661015,17.9797292 L10.4661015,18.045565 L9.75986255,18.045565 L9.75986255,17.9797292 C9.89452675,17.9797292 9.92744467,17.9587814 9.92744467,17.9109008 C9.92744467,17.8600277 9.90948944,17.8301023 9.89452675,17.7882068 L9.89452675,17.7882068 L9.66410135,17.3213709 L8.30249668,17.3213709 L8.11097426,17.7433187 C8.08404142,17.8121471 8.03616082,17.8749904 8.03616082,17.9109008 C8.03616082,17.9587814 8.07805635,17.9797292 8.18878025,17.9797292 L8.18878025,17.9797292 L8.18878025,18.045565 L7.56034732,18.045565 L7.56034732,17.9797292 C7.68004883,17.9797292 7.70698167,17.922871 7.73989959,17.8390799 L7.73989959,17.8390799 L8.62569075,15.8071468 C8.64963106,15.7532811 8.65561613,15.7383184 8.65561613,15.7113856 C8.65561613,15.6784677 8.61671314,15.6365722 8.51496686,15.6305871 L8.51496686,15.6305871 L8.51496686,15.5797139 L9.42170579,15.5797139 Z M30.2554542,15.5797139 L30.2554542,15.6425572 C30.198596,15.6425572 30.1267751,15.6575199 30.1267751,15.7113856 C30.1267751,15.7502886 30.1477229,15.7832065 30.1656781,15.825102 L30.1656781,15.825102 L31.1262827,17.8660128 C31.1472305,17.9198784 31.1801484,17.9797292 31.2998499,17.9797292 L31.2998499,17.9797292 L31.2998499,18.045565 L30.593611,18.045565 L30.593611,17.9797292 C30.7282752,17.9797292 30.7611931,17.9587814 30.7611931,17.9109008 C30.7611931,17.8600277 30.7432379,17.8301023 30.7282752,17.7882068 L30.7282752,17.7882068 L30.4978498,17.3213709 L29.1332526,17.3213709 L28.9447227,17.7433187 C28.9147973,17.8121471 28.8699092,17.8749904 28.8699092,17.9109008 C28.8699092,17.9587814 28.9118048,17.9797292 29.0225287,17.9797292 L29.0225287,17.9797292 L29.0225287,18.045565 L28.3940957,18.045565 L28.3940957,17.9797292 C28.5108047,17.9797292 28.5407301,17.922871 28.573648,17.8390799 L28.573648,17.8390799 L29.4594392,15.8071468 C29.4833795,15.7532811 29.486372,15.7383184 29.486372,15.7113856 C29.486372,15.6784677 29.447469,15.6365722 29.3487153,15.6305871 L29.3487153,15.6305871 L29.3487153,15.5797139 L30.2554542,15.5797139 Z M91.987318,15.5797139 L91.987318,15.6425572 C91.8706091,15.6425572 91.8376912,15.663505 91.8376912,15.6964229 C91.8376912,15.7173707 91.8586389,15.7443035 91.8975419,15.7891916 L93.411766,17.5338411 L93.411766,15.8011617 C93.411766,15.6724826 93.3788481,15.6425572 93.2621391,15.6425572 L93.2621391,15.5797139 L93.8786019,15.5797139 L93.8786019,15.6425572 C93.7618929,15.6425572 93.728975,15.6724826 93.728975,15.8011617 L93.728975,17.8211247 C93.728975,17.9527964 93.7618929,17.9797292 93.8786019,17.9797292 L93.8786019,18.045565 L93.1274749,18.045565 L93.1274749,17.9797292 C93.2711167,17.9797292 93.2830869,17.961774 93.2830869,17.9288561 C93.2830869,17.8929456 93.256154,17.8690053 93.217251,17.8271098 L91.6341986,16.0136319 L91.6341986,17.8211247 C91.6341986,17.9527964 91.6671165,17.9797292 91.786818,17.9797292 L91.786818,18.045565 L91.1673627,18.045565 L91.1673627,17.9797292 C91.2840717,17.9797292 91.3199821,17.9527964 91.3199821,17.8211247 L91.3199821,15.8011617 C91.3199821,15.6724826 91.2840717,15.6425572 91.1673627,15.6425572 L91.1673627,15.5797139 L91.987318,15.5797139 Z M36.5783872,15.5797139 L36.5783872,15.6425572 C36.4616782,15.6425572 36.4377379,15.6724826 36.4377379,15.8011617 L36.4377379,17.8211247 C36.4377379,17.9527964 36.4616782,17.9797292 36.5783872,17.9797292 L36.5783872,18.045565 L35.9499543,18.045565 L35.9499543,17.9797292 C36.0666632,17.9797292 36.0906035,17.9527964 36.0906035,17.8211247 L36.0906035,15.8011617 C36.0906035,15.6724826 36.0666632,15.6425572 35.9499543,15.6425572 L35.9499543,15.5797139 L36.5783872,15.5797139 Z M0.754119508,15.5797139 L0.754119508,15.6425572 C0.673320989,15.6425572 0.61945531,15.663505 0.61945531,15.7083931 C0.61945531,15.7173707 0.628432923,15.7383184 0.652373225,15.7772214 L1.49327633,17.3123933 L2.33417943,15.7772214 C2.35512719,15.7383184 2.36709734,15.7173707 2.36709734,15.7083931 C2.36709734,15.663505 2.31023913,15.6425572 2.23243315,15.6425572 L2.23243315,15.5797139 L2.99553027,15.5797139 L2.99553027,15.6425572 C2.89079145,15.6425572 2.86685115,15.6724826 2.86685115,15.8011617 L2.86685115,17.8211247 C2.86685115,17.9527964 2.89079145,17.9797292 2.99553027,17.9797292 L2.99553027,18.045565 L2.36709734,18.045565 L2.36709734,17.9797292 C2.48380632,17.9797292 2.51971677,17.9527964 2.51971677,17.8211247 L2.51971677,16.05852 L2.50774662,16.05852 L1.49028379,17.9258635 L0.478806037,16.0615125 L0.466835886,16.0615125 L0.466835886,17.8211247 C0.466835886,17.9527964 0.499753801,17.9797292 0.61945531,17.9797292 L0.61945531,18.045565 L-2.29816166e-13,18.045565 L-2.29816166e-13,17.9797292 C0.116708971,17.9797292 0.149626887,17.9527964 0.149626887,17.8211247 L0.149626887,15.8011617 C0.149626887,15.6724826 0.116708971,15.6425572 -2.29816166e-13,15.6425572 L-2.29816166e-13,15.5797139 L0.754119508,15.5797139 Z M15.2676282,15.5797139 L15.2676282,15.6425572 C15.1838372,15.6425572 15.1569044,15.6575199 15.1569044,15.702408 C15.1569044,15.7353259 15.1958073,15.7832065 15.2167551,15.8131319 L15.8541656,16.7168783 L16.5843448,15.8071468 C16.6292329,15.7502886 16.6441956,15.7293408 16.6441956,15.702408 C16.6441956,15.6545274 16.6292329,15.6425572 16.5394568,15.6425572 L16.5394568,15.5797139 L17.230733,15.5797139 L17.230733,15.6425572 C17.1020539,15.6425572 17.075121,15.7083931 16.9614046,15.8460498 L16.0247403,17.0221171 L16.0247403,17.8211247 C16.0247403,17.9527964 16.0456881,17.9797292 16.1683821,17.9797292 L16.1683821,18.045565 L15.5339641,18.045565 L15.5339641,17.9797292 C15.6297253,17.9797292 15.6536656,17.9527964 15.6536656,17.8211247 L15.6536656,17.0221171 L14.7948073,15.7891916 C14.7439341,15.7173707 14.6601431,15.6425572 14.576352,15.6425572 L14.576352,15.5797139 L15.2676282,15.5797139 Z M115.383876,15.5797139 L115.383876,15.6425572 C115.264174,15.6425572 115.231256,15.663505 115.231256,15.6964229 C115.231256,15.7173707 115.255197,15.7443035 115.2941,15.7891916 L116.808324,17.5338411 L116.808324,15.8011617 C116.808324,15.6724826 116.775406,15.6425572 116.658697,15.6425572 L116.658697,15.5797139 L117.278152,15.5797139 L117.278152,15.6425572 C117.158451,15.6425572 117.125533,15.6724826 117.125533,15.8011617 L117.125533,17.8211247 C117.125533,17.9527964 117.158451,17.9797292 117.278152,17.9797292 L117.278152,18.045565 L116.524033,18.045565 L116.524033,17.9797292 C116.667674,17.9797292 116.679645,17.961774 116.679645,17.9288561 C116.679645,17.8929456 116.652712,17.8690053 116.613809,17.8271098 L115.030756,16.0136319 L115.030756,17.8211247 C115.030756,17.9527964 115.066667,17.9797292 115.183376,17.9797292 L115.183376,18.045565 L114.56392,18.045565 L114.56392,17.9797292 C114.683622,17.9797292 114.713547,17.9527964 114.713547,17.8211247 L114.713547,15.8011617 C114.713547,15.6724826 114.683622,15.6425572 114.56392,15.6425572 L114.56392,15.5797139 L115.383876,15.5797139 Z M24.1171608,15.4426557 L24.1171608,16.0291931 L24.051325,16.0291931 C24.051325,15.9334319 24.0243922,15.8945289 23.9106757,15.8945289 L22.26478,15.8945289 L22.26478,16.6426633 L23.3630413,16.6426633 C23.4767577,16.6426633 23.5036906,16.6037604 23.5036906,16.5199693 L23.5695264,16.5199693 L23.5695264,17.0705962 L23.5036906,17.0705962 C23.5036906,16.9957828 23.4767577,16.9598723 23.3630413,16.9598723 L22.26478,16.9598723 L22.26478,17.8247157 C22.26478,17.9533949 22.2857277,17.9773352 22.4144069,17.9773352 L22.4144069,18.043171 L21.7650262,18.043171 L21.7650262,17.9773352 C21.8937053,17.9773352 21.9146531,17.9533949 21.9146531,17.8247157 L21.9146531,15.8017602 C21.9146531,15.6700886 21.8937053,15.6431557 21.7740038,15.6431557 L21.7740038,15.5803124 L23.9106757,15.5803124 C24.0243922,15.5803124 24.051325,15.5384169 24.051325,15.4426557 L24.1171608,15.4426557 Z M43.3723456,15.5794147 C43.8541442,15.5794147 44.0785845,15.8517356 44.0785845,16.2676984 C44.0785845,16.6986238 43.8302039,16.9230641 43.3992784,16.9350343 L43.3992784,16.9350343 L44.0157412,17.8776837 C44.0666143,17.9554896 44.0935472,17.9794299 44.1563905,17.9794299 L44.1563905,17.9794299 L44.1563905,18.0422732 L43.5518979,18.0422732 L43.5518979,17.9794299 C43.6297038,17.9794299 43.641674,17.9704523 43.641674,17.9315493 C43.641674,17.8986314 43.6207262,17.868706 43.5788307,17.7968851 L43.5788307,17.7968851 L43.0311963,16.9350343 L42.1483977,16.9350343 L42.1483977,17.8208254 C42.1483977,17.9495046 42.172338,17.9794299 42.2890469,17.9794299 L42.2890469,17.9794299 L42.2890469,18.0422732 L41.660614,18.0422732 L41.660614,17.9794299 C41.777323,17.9794299 41.8012633,17.9495046 41.8012633,17.8208254 L41.8012633,17.8208254 L41.8012633,15.8008625 C41.8012633,15.6721834 41.777323,15.642258 41.660614,15.642258 L41.660614,15.642258 L41.660614,15.5794147 Z M100.51246,15.5791154 C101.398251,15.5791154 101.781296,16.1207648 101.781296,16.8090484 C101.781296,17.5063097 101.398251,18.041974 100.51246,18.041974 L100.51246,18.041974 L99.1538474,18.041974 L99.1538474,17.9761382 C99.2705564,17.9761382 99.2944967,17.9492053 99.2944967,17.8205262 L99.2944967,17.8205262 L99.2944967,15.8005632 C99.2944967,15.6718841 99.2705564,15.6419587 99.1538474,15.6419587 L99.1538474,15.6419587 L99.1538474,15.5791154 Z M108.071909,15.8613117 C107.434499,15.8613117 107.030506,16.280267 107.030506,16.8069537 C107.030506,17.3366328 107.434499,17.7585807 108.071909,17.7585807 C108.70932,17.7585807 109.113312,17.3366328 109.113312,16.8069537 C109.113312,16.280267 108.70932,15.8613117 108.071909,15.8613117 Z M84.6750521,15.8613117 C84.0376416,15.8613117 83.633649,16.280267 83.633649,16.8069537 C83.633649,17.3366328 84.0376416,17.7585807 84.6750521,17.7585807 C85.3124626,17.7585807 85.7164552,17.3366328 85.7164552,16.8069537 C85.7164552,16.280267 85.3124626,15.8613117 84.6750521,15.8613117 Z M100.446624,15.8933319 L99.641631,15.8933319 L99.641631,17.7277575 L100.446624,17.7277575 C101.140892,17.7277575 101.410221,17.3117948 101.410221,16.8090484 C101.410221,16.3063021 101.140892,15.8933319 100.446624,15.8933319 L100.446624,15.8933319 Z M29.7916109,15.825102 L29.2619317,17.0011694 L30.3572005,17.0011694 L29.7916109,15.825102 Z M8.95786244,15.825102 L8.4311758,17.0011694 L9.52345207,17.0011694 L8.95786244,15.825102 Z M43.2825695,15.8756759 L42.1483977,15.8756759 L42.1483977,16.6238104 L43.3394277,16.6238104 C43.6057635,16.6238104 43.7075098,16.5011163 43.7075098,16.2557282 C43.7075098,15.9923849 43.6117486,15.8756759 43.2825695,15.8756759 L43.2825695,15.8756759 Z M16.6456919,5.13575726 L16.6456919,6.96419781 L16.5170127,6.96419781 C16.4840948,6.72180226 16.4421993,6.66793658 16.3284829,6.66793658 L12.9529003,6.66793658 L12.9529003,7.54774267 L14.9070275,7.54774267 C15.1194976,7.54774267 15.1913185,7.44300385 15.2242364,7.30534712 L15.3529156,7.30534712 L15.3529156,8.94825033 L15.2242364,8.94825033 C15.1913185,8.81059359 15.1194976,8.70585477 14.9070275,8.70585477 L12.9529003,8.70585477 L12.9529003,9.68441461 L16.3284829,9.68441461 C16.4451918,9.68441461 16.4840948,9.63054893 16.5170127,9.36720561 L16.6456919,9.36720561 L16.6456919,11.1956462 L16.5170127,11.1956462 C16.4840948,11.0160939 16.4421993,10.9652208 16.3284829,10.9652208 L11.0795717,10.9652208 L11.0795717,10.8365416 C11.342915,10.8155939 11.3758329,10.7407804 11.3758329,10.6450192 L11.3758329,5.7492275 C11.3758329,5.65645883 11.342915,5.58164538 11.0795717,5.56069762 L11.0795717,5.4320185 L16.3284829,5.4320185 C16.4421993,5.4320185 16.4840948,5.37815282 16.5170127,5.13575726 L16.6456919,5.13575726 Z M117.104585,5.13575726 L117.104585,6.96419781 L116.975906,6.96419781 C116.942988,6.72180226 116.901092,6.66793658 116.787376,6.66793658 L113.411793,6.66793658 L113.411793,7.54774267 L115.365921,7.54774267 C115.575398,7.54774267 115.650212,7.44300385 115.68313,7.30534712 L115.811809,7.30534712 L115.811809,8.94825033 L115.68313,8.94825033 C115.650212,8.81059359 115.575398,8.70585477 115.365921,8.70585477 L113.411793,8.70585477 L113.411793,9.68441461 L116.787376,9.68441461 C116.901092,9.68441461 116.942988,9.63054893 116.975906,9.36720561 L117.104585,9.36720561 L117.104585,11.1956462 L116.975906,11.1956462 C116.942988,11.0160939 116.901092,10.9652208 116.787376,10.9652208 L111.538465,10.9652208 L111.538465,10.8365416 C111.801808,10.8155939 111.831733,10.7407804 111.831733,10.6450192 L111.831733,5.7492275 C111.831733,5.65645883 111.801808,5.58164538 111.538465,5.56069762 L111.538465,5.4320185 L116.787376,5.4320185 C116.901092,5.4320185 116.942988,5.37815282 116.975906,5.13575726 L117.104585,5.13575726 Z M93.2025876,5.3652849 C94.9921252,5.3652849 96.4854015,6.35282236 96.4854015,8.1962256 C96.4854015,10.0426214 94.9921252,11.0331514 93.2025876,11.0331514 C91.4130501,11.0331514 89.9197737,10.0426214 89.9197737,8.1962256 C89.9197737,6.35282236 91.4130501,5.3652849 93.2025876,5.3652849 Z M47.4056879,5.43381402 L47.4056879,5.56249314 C47.1662849,5.56847822 47.1124193,5.63431405 47.1124193,5.6941648 C47.1124193,5.81386631 48.9318822,7.74704568 49.6680465,8.55503087 L49.6680465,5.75102302 C49.6680465,5.62533643 49.5842554,5.56847822 49.4495912,5.56249314 L49.4495912,5.43381402 L51.3767855,5.43381402 L51.3767855,5.56249314 C51.1134422,5.58044837 51.0805243,5.65526181 51.0805243,5.75102302 L51.0805243,10.6468147 C51.0805243,10.742576 51.1134422,10.8114043 51.3767855,10.8323521 L51.3767855,10.9670163 L49.3747778,10.9670163 L49.3747778,10.8323521 C49.5633077,10.8323521 49.6171733,10.7934491 49.6171733,10.7216282 L49.6151389,10.7012362 C49.5863929,10.5611644 49.2215883,10.2959753 46.576755,7.34903817 L46.576755,10.6468147 C46.576755,10.742576 46.6066804,10.8114043 46.8700237,10.8323521 L46.8700237,10.9670163 L44.868016,10.9670163 L44.868016,10.8323521 C45.1313593,10.8114043 45.1642772,10.742576 45.1642772,10.6468147 L45.1642772,5.75102302 C45.1642772,5.65526181 45.1313593,5.58044837 44.868016,5.56249314 L44.868016,5.43381402 L47.4056879,5.43381402 Z M101.10977,5.43141999 L101.10977,5.56009911 C100.984083,5.58104688 100.888322,5.60199464 100.888322,5.71870361 C100.888322,5.83242004 101.657404,8.1127338 101.920748,8.96560705 L101.941696,8.96560705 C102.193069,8.17557709 102.917263,5.82344243 102.917263,5.71870361 C102.917263,5.60199464 102.782599,5.58104688 102.695815,5.56009911 L102.695815,5.43141999 L105.200569,5.43141999 L105.200569,5.56009911 C105.104808,5.59301703 105.021017,5.61396479 105.021017,5.71870361 C105.021017,5.78453944 105.757181,8.27133829 105.903816,8.96560705 L105.924763,8.96560705 C106.05045,8.45986817 106.954196,5.87431557 106.954196,5.73965137 C106.954196,5.61396479 106.84048,5.59301703 106.735741,5.56009911 L106.735741,5.43141999 L108.498346,5.43141999 L108.498346,5.56009911 C108.393607,5.57206926 108.339741,5.65586032 108.321786,5.76059914 C108.291861,5.9401514 106.669905,10.5696073 106.67589,10.6893088 C106.67589,10.8149954 106.792599,10.823973 106.88836,10.8359431 L106.88836,10.9646223 L104.697823,10.9646223 L104.697823,10.8359431 C104.84745,10.8149954 104.910293,10.7760924 104.910293,10.6893088 C104.910293,10.351152 104.287845,8.41797264 103.898815,7.01147991 L103.877867,7.01147991 C103.530733,8.22944277 102.761651,10.4977864 102.761651,10.6893088 C102.761651,10.7760924 102.857412,10.8359431 102.992076,10.8359431 L102.992076,10.9646223 L100.72074,10.9646223 L100.72074,10.8359431 C100.837449,10.8149954 100.930218,10.7940476 100.930218,10.6563909 C100.930218,10.5815774 99.3411803,5.86533796 99.2873146,5.67680808 C99.2663668,5.59301703 99.2154937,5.56009911 99.1825758,5.56009911 L99.1825758,5.43141999 L101.10977,5.43141999 Z M83.6800333,4.32418103 C85.5503694,4.32418103 86.3463844,4.97954679 86.3463844,6.42194998 C86.3463844,7.58305462 85.5892724,8.19951739 84.5388916,8.48979355 L84.5388916,8.48979355 L86.0291754,10.58457 C86.1458844,10.7521521 86.2596008,10.8120028 86.3972576,10.8120028 L86.3972576,10.8120028 L86.3972576,10.9646223 L83.7698094,10.9646223 L83.7698094,10.8120028 C83.9463692,10.8000327 84.0451229,10.7371894 84.0451229,10.58457 C84.0451229,10.4708535 82.7074585,8.72919657 82.542869,8.46585325 L82.542869,8.46585325 L81.3069509,8.46585325 L81.3069509,10.58457 C81.3069509,10.6982864 81.3428613,10.7880625 81.6600703,10.8120028 L81.6600703,10.8120028 L81.6600703,10.9646223 L79.0685327,10.9646223 L79.0685327,10.8120028 C79.3827491,10.7880625 79.4216521,10.6982864 79.4216521,10.58457 L79.4216521,10.58457 L79.4216521,4.70124078 C79.4216521,4.58752435 79.3827491,4.50074075 79.0685327,4.47380791 L79.0685327,4.47380791 L79.0685327,4.32418103 Z M41.1880923,5.43141999 L41.1880923,5.56009911 C40.9277415,5.58104688 40.8948236,5.65586032 40.8948236,5.74862899 L40.8948236,10.6474133 C40.8948236,10.7401819 40.9277415,10.8149954 41.1880923,10.8359431 L41.1880923,10.9646223 L39.021495,10.9646223 L39.021495,10.8359431 C39.2848383,10.8149954 39.3177562,10.7401819 39.3177562,10.6474133 L39.3177562,5.74862899 C39.3177562,5.65586032 39.2848383,5.58104688 39.021495,5.56009911 L39.021495,5.43141999 L41.1880923,5.43141999 Z M23.8229944,5.43351476 C25.379114,5.43351476 26.0434574,5.97815663 26.0434574,7.1811568 C26.0434574,8.14774649 25.4090394,8.66246298 24.5382109,8.90485853 L24.5382109,8.90485853 L25.780114,10.649508 C25.8728827,10.7841722 25.9686439,10.8350454 26.0853529,10.8350454 L26.0853529,10.8350454 L26.0853529,10.9637245 L23.8948153,10.9637245 L23.8948153,10.8350454 C24.0414496,10.8230752 24.1282332,10.7751946 24.1282332,10.649508 C24.1282332,10.5537468 23.0120166,9.10236602 22.8743599,8.88091823 L22.8743599,8.88091823 L21.8449269,8.88091823 L21.8449269,10.649508 C21.8449269,10.7392842 21.8748523,10.8140976 22.1381956,10.8350454 L22.1381956,10.8350454 L22.1381956,10.9637245 L19.9715983,10.9637245 L19.9715983,10.8350454 C20.2349416,10.8140976 20.264867,10.7392842 20.264867,10.649508 L20.264867,10.649508 L20.264867,5.74773123 C20.264867,5.65795509 20.2349416,5.58014911 19.9715983,5.56219389 L19.9715983,5.56219389 L19.9715983,5.43351476 Z M5.10646638,4.3256773 C6.69550392,4.3256773 7.51246672,5.31022221 7.51246672,6.43840893 C7.51246672,7.56061058 6.69550392,8.53318535 5.10646638,8.53318535 L5.10646638,8.53318535 L2.82016756,8.53318535 L2.82016756,10.5860662 C2.82016756,10.6997827 2.85907055,10.7895588 3.17627955,10.8134991 L3.17627955,10.8134991 L3.17627955,10.963126 L0.581749335,10.963126 L0.581749335,10.8134991 C0.895965796,10.7895588 0.934868787,10.6997827 0.934868787,10.5860662 L0.934868787,10.5860662 L0.934868787,4.70572959 C0.934868787,4.59201316 0.895965796,4.49924449 0.581749335,4.47530418 L0.581749335,4.47530418 L0.581749335,4.3256773 Z M33.2931793,5.43351476 C34.8492989,5.43351476 35.5136423,5.97815663 35.5136423,7.1811568 C35.5136423,8.14774649 34.8822168,8.66246298 34.0083958,8.90485853 L34.0083958,8.90485853 L35.2502989,10.649508 C35.3430676,10.7841722 35.4388288,10.8350454 35.5555378,10.8350454 L35.5555378,10.8350454 L35.5555378,10.9637245 L33.3650002,10.9637245 L33.3650002,10.8350454 C33.5116345,10.8230752 33.5984181,10.7751946 33.5984181,10.649508 C33.5984181,10.5537468 32.4822015,9.10236602 32.3445448,8.88091823 L32.3445448,8.88091823 L31.3151118,8.88091823 L31.3151118,10.649508 C31.3151118,10.7392842 31.3450372,10.8140976 31.6083805,10.8350454 L31.6083805,10.8350454 L31.6083805,10.9637245 L29.4417832,10.9637245 L29.4417832,10.8350454 C29.7051265,10.8140976 29.7350519,10.7392842 29.7350519,10.649508 L29.7350519,10.649508 L29.7350519,5.74773123 C29.7350519,5.65795509 29.7051265,5.58014911 29.4417832,5.56219389 L29.4417832,5.56219389 L29.4417832,5.43351476 Z M93.2025876,6.64908359 C92.2868711,6.64908359 91.4758933,7.20569561 91.4758933,8.1962256 C91.4758933,9.18675559 92.2868711,9.74935268 93.2025876,9.74935268 C94.1183042,9.74935268 94.9292819,9.18675559 94.9292819,8.1962256 C94.9292819,7.20569561 94.1183042,6.64908359 93.2025876,6.64908359 Z M62.5871311,0.759769338 C62.141243,0.669993206 61.5397429,0.7567768 61.1327578,0.987202205 C60.3307577,1.41812764 59.8609292,1.87598591 59.2025709,2.5971875 C57.6045558,4.46752359 57.6434588,7.13686724 59.1666605,8.98326302 L59.1666605,8.98326302 L59.1876082,9.01019586 C59.5287575,9.34236755 59.9327501,9.4650616 60.1960935,9.47403921 L60.1960935,9.47403921 L60.0919099,9.46465246 C59.8368954,9.42840301 59.503695,9.28962407 59.2025709,9.00421078 C60.2529517,8.51642713 61.2045787,7.93288228 62.1202952,7.22963591 C63.0419968,6.46653879 63.7482357,5.47900134 64.167191,4.35979223 C64.4754224,3.4141503 64.3766687,2.29494119 63.7751686,1.50191869 C63.5776611,1.16376193 63.0599521,0.855530545 62.5871311,0.759769338 Z M23.6105242,6.61257463 L21.8449269,6.61257463 L21.8449269,7.76769419 L23.6105242,7.76769419 C24.232972,7.76769419 24.4215019,7.49238072 24.4215019,7.19013441 C24.4215019,6.88489556 24.232972,6.61257463 23.6105242,6.61257463 L23.6105242,6.61257463 Z M33.0807091,6.61257463 L31.3151118,6.61257463 L31.3151118,7.76769419 L33.0807091,7.76769419 C33.7031569,7.76769419 33.8916868,7.49238072 33.8916868,7.19013441 C33.8916868,6.88489556 33.7031569,6.61257463 33.0807091,6.61257463 L33.0807091,6.61257463 Z M4.75035439,5.74414018 L2.82016756,5.74414018 L2.82016756,7.19552098 L4.75035439,7.19552098 C5.43564553,7.19552098 5.77978737,6.96808811 5.77978737,6.44140147 C5.77978737,5.94763275 5.43564553,5.74414018 4.75035439,5.74414018 L4.75035439,5.74414018 Z M83.4286601,5.74563645 L81.3069509,5.74563645 L81.3069509,7.12818888 L83.4286601,7.12818888 C84.173802,7.12818888 84.4012349,6.80200227 84.4012349,6.43691267 C84.4012349,6.07182306 84.173802,5.74563645 83.4286601,5.74563645 L83.4286601,5.74563645 Z M120.391588,3.33005999 C120.616029,3.33005999 120.819521,3.37195552 121.008051,3.45275404 C121.193589,3.53953764 121.355186,3.65026153 121.492842,3.7909108 C121.627506,3.93156008 121.732245,4.09614965 121.813044,4.29066461 C121.89085,4.48218702 121.929753,4.69166466 121.929753,4.91311245 C121.929753,5.13456025 121.89085,5.34104535 121.813044,5.5355603 C121.732245,5.72409018 121.627506,5.88867975 121.492842,6.03232156 C121.355186,6.17297084 121.193589,6.2807022 121.008051,6.3525231 C120.819521,6.42733655 120.616029,6.463247 120.391588,6.463247 C120.173133,6.463247 119.972633,6.42733655 119.784103,6.3525231 C119.598566,6.2807022 119.436969,6.17297084 119.29632,6.03232156 C119.158663,5.88867975 119.050932,5.72409018 118.973126,5.5355603 C118.89532,5.34104535 118.856417,5.13456025 118.856417,4.91311245 C118.856417,4.69166466 118.89532,4.48218702 118.973126,4.29066461 C119.050932,4.09614965 119.158663,3.93156008 119.29632,3.7909108 C119.436969,3.65026153 119.598566,3.53953764 119.784103,3.45275404 C119.972633,3.37195552 120.173133,3.33005999 120.391588,3.33005999 Z M120.391588,3.57844063 C120.221014,3.57844063 120.062409,3.61435108 119.915775,3.68617198 C119.769141,3.75500035 119.643454,3.85076156 119.538715,3.97345561 C119.427991,4.09614965 119.3442,4.23679893 119.284349,4.4013885 C119.224499,4.559993 119.194573,4.73056765 119.194573,4.91610499 C119.194573,5.09266472 119.224499,5.26323937 119.284349,5.42782894 C119.3442,5.58643344 119.427991,5.72708272 119.538715,5.84678423 C119.643454,5.9634932 119.769141,6.06224694 119.915775,6.12808277 C120.062409,6.19990368 120.221014,6.23282159 120.391588,6.23282159 C120.565156,6.23282159 120.72376,6.19990368 120.867402,6.12808277 C121.014036,6.06224694 121.142715,5.9634932 121.247454,5.84678423 C121.355186,5.72708272 121.438977,5.58643344 121.498827,5.42782894 C121.558678,5.26323937 121.588604,5.09266472 121.588604,4.91610499 C121.588604,4.73056765 121.558678,4.559993 121.498827,4.39839596 C121.438977,4.23380639 121.355186,4.09016458 121.250447,3.97046307 C121.145708,3.85076156 121.020021,3.75500035 120.87638,3.68617198 C120.729745,3.61435108 120.568148,3.57844063 120.391588,3.57844063 Z M120.532238,4.0362989 C120.666902,4.0362989 120.786603,4.06622428 120.885357,4.13804518 C120.987103,4.20687355 121.034984,4.31759745 121.034984,4.46722433 C121.034984,4.56897061 121.005059,4.66473182 120.942215,4.74852288 C120.879372,4.83231393 120.792588,4.89216469 120.684857,4.92807514 L120.942215,5.29316475 C120.990096,5.36199311 121.040969,5.43381402 121.091842,5.49665731 C121.142715,5.56249314 121.190596,5.61635882 121.235484,5.66423942 L121.235484,5.71212003 L120.858424,5.71212003 C120.822514,5.71212003 120.789596,5.69117226 120.753685,5.64927674 C120.720768,5.60139613 120.681865,5.54753045 120.645954,5.47271701 C120.607051,5.40388864 120.568148,5.32009759 120.52326,5.23630653 C120.478372,5.15251547 120.430491,5.06573188 120.379618,4.98493336 L120.232984,4.98493336 L120.232984,5.43680656 C120.232984,5.51162 120.241962,5.56249314 120.253932,5.58044837 C120.271887,5.59840359 120.328745,5.61336628 120.430491,5.6223439 L120.430491,5.71212003 L119.661409,5.71212003 L119.661409,5.6223439 C119.763155,5.61336628 119.820014,5.59840359 119.837969,5.58044837 C119.852932,5.56249314 119.861909,5.51162 119.861909,5.43680656 L119.861909,4.30562729 C119.861909,4.22782131 119.852932,4.18293325 119.834976,4.16198548 C119.817021,4.13505264 119.75717,4.12308249 119.661409,4.11410488 L119.661409,4.0362989 L120.532238,4.0362989 Z M120.379618,4.14103772 L120.232984,4.14103772 L120.232984,4.877202 L120.373633,4.877202 C120.475379,4.877202 120.544208,4.83530647 120.583111,4.75450795 C120.619021,4.67370944 120.636977,4.58094077 120.636977,4.48517956 C120.636977,4.35650044 120.616029,4.2667243 120.565156,4.21585116 C120.520268,4.16797056 120.457424,4.14103772 120.379618,4.14103772 Z" id="path-1"></path>
    </defs>
    <g id="Nav" stroke="none" stroke-width="1" fill="none" fill-rule="evenodd">
        <g id="THOR-KBIS_Nav-Tablet" transform="translate(-172.000000, -762.000000)">
            <g id="Showrooms" transform="translate(52.000000, 676.000000)">
                <g id="All-Brands/Horizontal" transform="translate(0.000000, 66.000000)">
                    <g id="Logo/Perrin-&amp;-Rowe/Black" transform="translate(120.554990, 20.941516)">
                        <mask id="mask-2" fill="white">
                            <use xlink:href="#path-1"></use>
                        </mask>
                        <use id="Combined-Shape" fill="#84754E" xlink:href="#path-1"></use>
                        <g id="Colors/Black" mask="url(#mask-2)" fill="#FFFFFF">
                            <rect id="Rectangle" x="0" y="0" width="126.95614" height="34.1394662"></rect>
                        </g>
                    </g>
                </g>
            </g>
        </g>
    </g>
</svg>