<?xml version="1.0" encoding="UTF-8"?>
<svg width="67px" height="31px" viewBox="0 0 67 31" version="1.1" xmlns="http://www.w3.org/2000/svg" xmlns:xlink="http://www.w3.org/1999/xlink">
    <title>Logo/Riobel/Black</title>
    <defs>
        <path d="M57.2212117,2.77111667e-13 L64.6067948,11.6439643 C64.7245013,11.8414718 64.8355577,12.0456294 64.9381907,12.2546637 L65.0856009,12.571651 L65.2382203,12.9337481 C65.5404666,13.7088153 65.7439592,14.5437334 65.8217651,15.4295245 C65.9020674,16.3363969 65.8484913,17.2234128 65.6792492,18.0653552 C65.7687877,18.2245679 65.8537647,18.3866356 65.9333557,18.5518637 L66.0485995,18.8021146 L66.2012189,19.1672042 C66.5034652,19.9392789 66.7069578,20.7771895 66.7847638,21.6629806 C67.1827713,26.1547798 64.2919799,30.1617878 60.3298599,30.6106684 C58.2560313,30.8470789 56.3019041,30.0660266 54.8535159,28.6266159 C56.0235981,29.4854743 57.4300908,29.9523101 58.9263597,29.8565489 C62.6909722,29.6261235 65.5697935,25.9572723 65.3573233,21.6599881 C65.3309051,21.0848837 65.2285865,20.432499 65.0981615,19.9015063 C64.0276896,22.3247411 61.9196389,24.0909929 59.3668613,24.3802049 C57.2930326,24.6166154 55.341898,23.835563 53.8905172,22.3931598 C55.0605995,23.2550107 56.4670922,23.7218466 57.9633611,23.6260854 C61.0256677,23.4362126 63.5018521,20.9751165 64.2064115,17.7488368 C63.5446652,16.597787 59.5837939,9.67283443 58.2332739,6.52864542 L58.1453074,6.32023969 L58.1842103,6.23046355 L64.4064292,16.0384775 C64.4102864,15.8361486 64.4073292,15.6320649 64.3973172,15.426532 C64.3524291,14.5826364 64.1519291,13.5681661 63.9364664,13.0205317 C63.7210037,12.4818749 63.5175111,12.053942 63.3379588,11.6798748 C63.3379588,11.6798748 58.7193153,3.68751294 57.2603909,0.265653656 L57.1853013,0.0867835942 L57.2212117,2.77111667e-13 Z M23.4788525,13.8105025 C24.4544198,13.8075691 25.1995617,13.918293 25.7053006,14.1158005 C26.3995694,14.3911139 26.9172784,14.8908677 27.282368,15.6479798 C27.5457113,16.2195545 27.6953382,17.4345248 27.6953382,19.23304 C27.6953382,20.9148462 27.5397262,22.1507643 27.2494501,22.9198465 C26.9322411,23.7727197 26.4803679,24.2964138 25.8908379,24.5418019 C25.4868453,24.7243467 24.7357184,24.8290855 23.6703749,24.8261554 L23.6703749,24.8261554 L23.3172555,24.8261554 C22.2878225,24.8261554 21.5426806,24.7153691 21.099785,24.5178616 C20.4863148,24.2515258 20.0344416,23.7368093 19.7411729,22.922839 C19.4838147,22.1866747 19.3461147,21.0135999 19.3461147,19.4245624 C19.3431654,17.5332786 19.4957848,16.2524724 19.7621207,15.6419947 C20.0912998,14.8848827 20.582076,14.3911139 21.255397,14.1158005 C21.7611359,13.918293 22.5062778,13.8075691 23.4788525,13.8105025 Z M17.7705868,13.9703631 L17.7705868,23.4956107 C17.7795644,23.9684317 17.9621092,24.2736705 18.1955272,24.4771631 C18.2972734,24.5669392 18.4020123,24.6447452 18.5067511,24.7195587 L18.5067511,24.7195587 L15.1311685,24.7195587 L15.1311685,13.9703631 L17.7705868,13.9703631 Z M31.6661365,7.04084277 L31.6661365,15.1595976 L31.9923231,14.7047319 C32.3693829,14.1750527 32.7733755,13.9476199 33.2461964,13.9446273 L33.2461964,13.9446273 L35.8886072,13.9446273 C36.2716521,13.9446273 36.6247715,14.0882691 36.9659208,14.3965005 C37.3070701,14.7077244 37.4596895,15.027926 37.4626821,15.4079783 L37.4626821,15.4079783 L37.4626821,23.0658823 C37.456697,23.5506734 37.2083164,23.9397033 36.6337491,24.2868377 C36.1220252,24.5741213 35.5893535,24.7178479 35.0267564,24.7178479 C33.3898382,24.7237482 32.3783605,24.4125243 31.986338,23.8948153 L31.986338,23.8948153 L31.7499276,23.598554 L31.5105245,24.7178479 L28.4401808,24.7178479 C28.9399346,24.1761138 29.1135018,23.553666 29.1135018,23.0658823 L29.1135018,23.0658823 L29.1135018,8.8034475 C29.1164944,8.29471608 28.9489122,7.90867871 28.6646212,7.59745479 C28.4850689,7.3999473 28.2666136,7.22638011 28.0152405,7.04084277 L28.0152405,7.04084277 L31.6661365,7.04084277 Z M51.5545423,7.04593009 L51.5545423,24.7168654 L48.9211091,24.7168654 L48.9211091,8.1890795 C48.9270941,7.64144509 48.642803,7.30927341 48.3285866,7.12972114 C48.2777134,7.09680323 48.2238478,7.07286293 48.1699821,7.04593009 L48.1699821,7.04593009 L51.5545423,7.04593009 Z M43.3011232,13.8889661 C43.8248173,13.8889661 44.2018771,13.9099139 44.4143472,13.9428318 C45.4198399,14.0415855 46.1350564,14.4904662 46.6318177,15.3403469 C47.1106237,16.1543172 47.3709745,17.3483397 47.3889297,18.9254071 L47.3889297,18.9254071 L41.2691901,18.9254071 L41.2721826,19.1049594 C41.2901378,19.8979819 41.3080931,20.4396312 41.3260483,20.7269148 C41.3829065,21.3703104 41.4726826,21.9209374 41.6013618,22.3847807 C41.9185708,23.5758107 42.9001231,24.1982586 44.3604816,24.1862884 C44.6477652,24.1862884 45.3599892,24.1144675 46.5420416,23.9798033 L46.5420416,23.9798033 L47.056758,24.7159676 L42.7445112,24.7159676 C41.8467499,24.7159676 41.0537274,24.4466392 40.3474885,23.9079824 C39.6412496,23.360348 39.1923689,22.6630867 38.9828913,21.7832806 C38.8272793,21.0830268 38.7464571,20.1912506 38.7464571,19.1019668 C38.7434882,17.4231532 39.0247868,16.1632948 39.560451,15.3164066 C40.0961153,14.472511 40.8711826,14.0266228 41.9484961,13.9458243 C42.2477499,13.9099139 42.693638,13.8889661 43.283168,13.8889661 L43.283168,13.8889661 Z M2.48689958e-14,6.47285911 C0.447758458,6.77136475 0.929884341,6.94843882 1.36418222,7.00007178 L1.54714201,7.01450844 L9.17512068,7.01450844 C10.3691432,7.01750098 11.302815,7.44842641 12.0270091,8.32523997 C12.6793824,9.15118038 13.0115541,10.1746283 13.0115541,11.419524 C13.0115541,12.416039 12.7841212,13.3287631 12.332248,14.1636811 C11.8265091,15.0494722 11.1591732,15.6629425 10.3152776,16.0280321 C10.2458507,16.0567604 10.2051522,16.1257085 10.2085038,16.198104 L10.2195163,16.2524724 L12.7781361,23.2879286 C12.9250425,23.6769585 13.2302319,24.1352372 13.8151145,24.5818246 L13.9990915,24.7153691 L10.4559268,24.7153691 L7.48134433,16.9078382 C7.4155085,16.7582113 7.31376221,16.5816516 7.16712786,16.3602038 C7.14518259,16.3282834 7.11259718,16.3043431 7.07557838,16.2919296 L7.01750098,16.2823978 L5.94018739,16.2823978 C5.89230679,16.2823978 5.84741873,16.300353 5.81450081,16.3332709 C5.79056051,16.3532212 5.77460031,16.3824816 5.76662021,16.4139586 L5.76063513,16.4619501 L5.76063513,24.7153691 L2.0618585,24.7153691 C2.21747046,24.6615034 2.38505257,24.5896825 2.54066453,24.4969139 C2.79868779,24.3373118 3.02833735,24.0784019 3.08669389,23.70337 L3.10026909,23.557257 L3.10026909,10.5307403 C3.10026909,10.1806134 3.22595567,9.86041182 3.50126914,9.54320282 C3.73319082,9.27636821 3.99005031,9.08226889 4.28050657,8.95744127 L4.45888122,8.8908296 L5.01848577,8.74120271 C5.10526937,8.71726241 5.15913505,8.63047881 5.1471649,8.54369522 C5.13758878,8.47187431 5.08779295,8.41345998 5.02229228,8.39296708 L4.97060517,8.38509072 L0.757112046,8.38509072 L2.48689958e-14,6.47285911 Z M33.2731293,15.0697766 C32.8062934,15.066829 32.4023008,15.2224409 32.1090321,15.5246872 C31.8127709,15.8329186 31.6661365,16.2369112 31.6661365,16.7037471 L31.6661365,16.7037471 L31.6661365,22.0933076 C31.6661365,22.5751061 31.7918231,23.0000465 32.0521739,23.359151 C32.3125247,23.7242406 32.7225023,23.9187556 33.2072934,23.9187556 L33.2072934,23.9187556 L33.2192636,23.9187556 C33.6950771,23.9187556 34.1110398,23.7302257 34.4073011,23.3681286 C34.7065548,23.0120166 34.8561817,22.5780987 34.8531892,22.0933076 L34.8531892,22.0933076 L34.8531892,16.5960157 C34.8561817,16.1591052 34.6975772,15.7760604 34.3923384,15.4947619 C34.0930846,15.2134633 33.7070472,15.066829 33.2731293,15.0697766 Z M23.4788525,14.9596265 C22.8653823,14.953711 22.3805912,15.3337633 22.1022852,15.983144 C21.8179941,16.6355172 21.6863224,17.569189 21.6833299,18.8051071 C21.6833299,20.2265625 21.728218,21.1931522 21.8209866,21.7198388 C21.9855762,23.0126151 22.6140091,23.781729 23.6224943,23.781729 L23.6224943,23.781729 L23.6434421,23.781729 C24.0444422,23.7846899 24.3915765,23.5752122 24.627987,23.2101226 C24.8643975,22.845033 25.0200095,22.3303165 25.1127781,21.6599881 C25.1875916,21.1542492 25.2205095,20.2205774 25.223502,18.8320399 C25.2205095,17.5871442 25.0918304,16.6474874 24.8165169,15.9891291 C24.550181,15.3397484 24.0803526,14.9567036 23.4788525,14.9596265 Z M42.9869067,14.6101677 C42.4183246,14.6041826 41.9514887,14.8974513 41.6761752,15.4211454 C41.3978692,15.941847 41.2721826,16.6810038 41.2721826,17.6475935 L41.2721826,17.6475935 L41.2721826,17.8271458 L44.7824294,17.8271458 L44.7824294,17.6475935 C44.7824294,17.1957203 44.7734518,16.8336232 44.7554965,16.5583098 C44.7165935,16.0406007 44.5490114,15.585735 44.2467651,15.2056827 C43.9385337,14.8136603 43.4986307,14.6071752 42.9869067,14.6101677 Z M7.78359064,8.38509072 L5.94018739,8.38509072 C5.89230679,8.38509072 5.84741873,8.40903102 5.81450081,8.44194894 C5.79056051,8.46389421 5.77460031,8.48982954 5.76662021,8.51975492 L5.76063513,8.56763552 L5.76063513,14.6245319 C5.76063513,14.675405 5.77859036,14.7202931 5.81450081,14.7502185 C5.83644609,14.7741588 5.86371143,14.791449 5.89363681,14.8003158 L5.94018739,14.8070767 L7.17909802,14.8070767 C8.06788172,14.7980991 9.39956101,14.4928602 10.0010611,13.7686661 C10.5307403,13.1462182 10.7970761,12.3771361 10.7970761,11.49733 C10.7970761,10.584606 10.5157776,9.81851629 9.95018795,9.23497144 C9.47437445,8.74419525 8.73821017,8.47486685 7.78359064,8.38509072 Z M17.7490405,9.82569838 L17.7490405,12.1628704 L15.1126148,12.1628704 L15.1126148,9.82569838 L17.7490405,9.82569838 Z M53.2740544,7.13480846 C53.8456291,7.13780099 54.3154576,7.61062196 54.312465,8.17920412 C54.3094725,8.75377137 53.833659,9.22659233 53.2620843,9.22060725 C52.687517,9.21462218 52.2206812,8.74180122 52.2266662,8.17321905 C52.2326513,7.59865181 52.7024797,7.13181592 53.2740544,7.13480846 Z M53.2650768,7.35027117 C52.804226,7.35027117 52.4421289,7.71835331 52.4421289,8.18219666 C52.4451215,8.64304747 52.8102111,9.00514454 53.2740544,9.00514454 C53.7349052,9.002152 54.0999949,8.63406986 54.0970023,8.17321905 C54.0940098,7.71236824 53.7289202,7.35027117 53.2650768,7.35027117 Z M52.825473,7.60942494 C53.019988,7.61541002 53.220488,7.6064324 53.415003,7.62738017 C53.5706149,7.64533539 53.6424358,7.72912645 53.6573985,7.86977572 C53.6723612,8.00144738 53.6244806,8.12114889 53.4838313,8.17501457 C53.4778463,8.17800711 53.4748537,8.18099965 53.4658761,8.18997726 C53.5646299,8.23486533 53.6095179,8.31566385 53.654406,8.40543998 C53.699294,8.50120118 53.7471747,8.59396985 53.7980478,8.70170121 C53.7262269,8.70170121 53.6603911,8.6927236 53.5975478,8.70170121 C53.5197418,8.71367136 53.4778463,8.67776091 53.4509134,8.60893254 C53.4269731,8.54309671 53.3940552,8.4862385 53.3641298,8.42638774 C53.298294,8.30070116 53.2474209,8.27676085 53.0948014,8.28873101 L53.0948014,8.65681315 C53.0948014,8.67776091 53.0948014,8.70170121 53.0648761,8.70170121 C52.9840775,8.69571614 52.903279,8.70170121 52.8164954,8.70170121 L52.8164954,7.61840255 C52.819488,7.61541002 52.8224805,7.60942494 52.825473,7.60942494 Z" id="path-1"></path>
    </defs>
    <g id="Nav" stroke="none" stroke-width="1" fill="none" fill-rule="evenodd">
        <g id="THOR-KBIS_Nav-Tablet" transform="translate(-52.000000, -758.000000)">
            <g id="Showrooms" transform="translate(52.000000, 676.000000)">
                <g id="All-Brands/Horizontal" transform="translate(0.000000, 66.000000)">
                    <g id="Logo/Riobel/Black" transform="translate(0.000000, 16.002875)">
                        <mask id="mask-2" fill="white">
                            <use xlink:href="#path-1"></use>
                        </mask>
                        <use id="Combined-Shape" fill="#84754E" xlink:href="#path-1"></use>
                        <g id="Colors/Black" mask="url(#mask-2)" fill="#FFFFFF">
                            <rect id="Rectangle" x="0" y="0" width="67.212074" height="30.9388912"></rect>
                        </g>
                    </g>
                </g>
            </g>
        </g>
    </g>
</svg>