<?xml version="1.0" encoding="UTF-8"?>
<svg width="52px" height="17px" viewBox="0 0 52 17" version="1.1" xmlns="http://www.w3.org/2000/svg" xmlns:xlink="http://www.w3.org/1999/xlink">
    <title>Logo/Rohl/Black</title>
    <defs>
        <path d="M20.3740946,4.33618717 C24.0519235,4.33618717 27.0354836,6.65839645 27.0354836,10.1776208 C27.0354836,13.4933526 24.2554161,16.3751665 20.3740946,16.3751665 C16.6783105,16.3751665 13.6947504,14.0559497 13.6947504,10.5367253 C13.6947504,7.21800101 16.4987583,4.33618717 20.3740946,4.33618717 Z M49.9936346,15.0955573 C50.0864032,15.0955573 50.1761794,15.1194976 50.2539854,15.1643857 C50.3347839,15.2152588 50.3976272,15.2751096 50.4425152,15.3559081 C50.4903958,15.4396992 50.5143361,15.5234902 50.5143361,15.6132664 C50.5143361,15.7120201 50.4903958,15.7958112 50.4455078,15.8736171 C50.4006197,15.9574082 50.3347839,16.0172589 50.2539854,16.0681321 C50.1761794,16.1100276 50.0864032,16.1339679 49.9936346,16.1339679 C49.906851,16.1339679 49.8170749,16.1100276 49.7362763,16.0681321 C49.6584704,16.0172589 49.5926345,15.9574082 49.550739,15.8736171 C49.4998659,15.7958112 49.4759256,15.7120201 49.4759256,15.6162589 C49.4759256,15.5234902 49.4998659,15.4396992 49.550739,15.3559081 C49.5926345,15.2751096 49.6584704,15.2152588 49.7362763,15.1643857 C49.8170749,15.1194976 49.9038584,15.0955573 49.9936346,15.0955573 Z M39.4569092,4.59085213 L39.4299764,4.94995666 C39.3282301,4.94995666 39.277357,4.94995666 39.1486778,4.97389696 C37.8977971,5.10257608 37.7451776,5.45868807 37.7451776,6.47914344 L37.7451776,6.47914344 L37.7451776,14.2358012 C37.7451776,15.2562566 37.8977971,15.6123686 39.1486778,15.7410477 C39.277357,15.7619955 39.3282301,15.7619955 39.4299764,15.7619955 L39.4299764,15.7619955 L39.4569092,16.1240925 L39.0978047,16.0941672 C38.2060285,16.0193537 37.8469239,15.965488 37.3621328,15.965488 L37.3621328,15.965488 L36.5212297,15.965488 C36.0394311,15.965488 35.6833192,16.0193537 34.7885504,16.0941672 L34.7885504,16.0941672 L34.4324384,16.1240925 L34.4593712,15.7619955 C34.558125,15.7619955 34.6089981,15.7619955 34.7346847,15.7410477 C35.9855655,15.6123686 36.1381849,15.2562566 36.1381849,14.2358012 L36.1381849,14.2358012 L36.1381849,9.32205428 L29.9915124,9.32205428 L29.9915124,14.2358012 C29.9915124,15.2562566 30.1441318,15.6123686 31.3950126,15.7410477 C31.5236917,15.7619955 31.5775574,15.7619955 31.6793037,15.7619955 L31.6793037,15.7619955 L31.703244,16.1240925 L31.347132,16.0941672 C30.4523632,16.0193537 30.0962512,15.965488 29.6084676,15.965488 L29.6084676,15.965488 L28.7675645,15.965488 C28.2827733,15.965488 27.9236688,16.0193537 27.0348851,16.0941672 L27.0348851,16.0941672 L26.6757806,16.1240925 L26.705706,15.7619955 C26.8044597,15.7619955 26.8583254,15.7619955 26.9870045,15.7410477 C28.2348927,15.6123686 28.3845196,15.2562566 28.3845196,14.2358012 L28.3845196,14.2358012 L28.3845196,6.47914344 C28.3845196,5.45868807 28.2348927,5.10257608 26.9870045,4.97389696 C26.8583254,4.94995666 26.8044597,4.94995666 26.705706,4.94995666 L26.705706,4.94995666 L26.6757806,4.59085213 L27.0348851,4.61778497 C27.9236688,4.69259842 28.2827733,4.74347156 28.7675645,4.74347156 L28.7675645,4.74347156 L29.6084676,4.74347156 C30.0962512,4.74347156 30.4523632,4.69259842 31.347132,4.61778497 L31.347132,4.61778497 L31.703244,4.59085213 L31.6793037,4.94995666 C31.5775574,4.94995666 31.5236917,4.94995666 31.3950126,4.97389696 C30.1441318,5.10257608 29.9915124,5.45868807 29.9915124,6.47914344 L29.9915124,6.47914344 L29.9915124,8.43027804 L36.1381849,8.4272855 L36.1381849,6.47914344 C36.1381849,5.45868807 35.9855655,5.10257608 34.7346847,4.97389696 C34.6089981,4.94995666 34.558125,4.94995666 34.4593712,4.94995666 L34.4593712,4.94995666 L34.4324384,4.59085213 L34.7885504,4.61778497 C35.6833192,4.69259842 36.0394311,4.74347156 36.5212297,4.74347156 L36.5212297,4.74347156 L37.3621328,4.74347156 C37.8469239,4.74347156 38.2060285,4.69259842 39.0978047,4.61778497 L39.0978047,4.61778497 L39.4569092,4.59085213 Z M1.48325796e-12,-1.42108547e-14 L0.35611199,0.0269328396 C1.24788823,0.101746283 1.6818062,0.155611962 2.34614958,0.155611962 C2.98356012,0.155611962 5.04841115,0.0269328396 6.32323222,0.0269328396 C9.84544913,0.0269328396 11.9073076,1.81347786 11.9073076,4.00700802 C11.9073076,6.29929192 10.0220089,8.11276979 7.85541154,8.85192661 L7.85541154,8.85192661 L13.5921064,15.2439872 C13.8374945,15.5372559 14.2773975,15.6808977 14.9806439,15.7557112 C15.1063305,15.7796515 15.1572036,15.7796515 15.2589499,15.7796515 L15.2589499,15.7796515 L15.2828902,16.1088306 L14.9267782,16.0848903 C14.0320094,16.0100769 13.4215317,15.9562112 12.9367406,15.9562112 L12.9367406,15.9562112 L11.9701509,15.9562112 C11.4853598,15.9562112 10.8718896,16.0100769 9.98011333,16.0848903 L9.98011333,16.0848903 L9.62400134,16.1088306 L9.64794164,15.7796515 C9.75268046,15.7796515 9.80056107,15.7796515 9.92624765,15.7557112 C10.6145313,15.6838902 11.6140389,15.5611962 11.024509,14.9507185 L11.024509,14.9507185 L10.9826135,14.8968528 L6.20652325,9.28883712 L3.69279156,9.28883712 L3.69279156,14.2624348 C3.69279156,15.2798977 4.10576177,15.6390022 5.35664254,15.7646888 C5.48232912,15.7886291 5.53320226,15.7886291 5.63794108,15.7886291 L5.63794108,15.7886291 L5.65888885,16.1208008 L5.30277686,16.0938679 C4.41100061,16.0190545 3.79753038,15.9681813 3.31273927,15.9681813 L3.31273927,15.9681813 L2.34614958,15.9681813 C1.86135847,15.9681813 1.24788823,16.0190545 0.35611199,16.0938679 L0.35611199,16.0938679 L1.48325796e-12,16.1208008 L0.0239403018,15.7886291 C0.125686585,15.7886291 0.176559726,15.7886291 0.305238849,15.7646888 C1.55312708,15.6390022 1.96310475,15.2798977 1.96310475,14.2624348 L1.96310475,14.2624348 L1.96310475,1.86435101 C1.96310475,0.84389564 1.55312708,0.484791112 0.305238849,0.359104528 C0.176559726,0.332171688 0.125686585,0.332171688 0.0239403018,0.332171688 L0.0239403018,0.332171688 L1.48325796e-12,-1.42108547e-14 Z M45.6412877,4.59294691 L45.6173474,4.9490589 C45.5126086,4.9490589 45.464728,4.9490589 45.3360489,4.97599174 C44.0881606,5.10167832 43.9355412,5.45779031 43.9355412,6.47824568 L43.9355412,6.47824568 L43.9355412,14.2319109 C43.9355412,15.15062 43.9864143,15.2014932 44.8003846,15.2014932 L44.8003846,15.2014932 L46.6886759,15.2014932 C48.0383104,15.2014932 48.163997,15.1266797 49.0617583,14.0044781 L49.0617583,14.0044781 L49.672236,13.2383884 L50.2557809,13.2383884 C49.2622584,14.5431349 48.9061464,15.4049857 48.7295866,16.0693291 C48.7295866,16.0693291 45.0517578,15.9675828 43.5764367,15.9675828 L42.7086007,15.9675828 C42.2268022,15.9675828 41.8706902,16.018456 40.9759214,16.0962619 L40.9759214,16.0962619 L40.6198094,16.1202022 L40.6407572,15.7640903 C40.745496,15.7640903 40.7933766,15.7640903 40.9220557,15.7371574 C42.1729365,15.6114708 42.3285484,15.2523663 42.3285484,14.2319109 L42.3285484,14.2319109 L42.3285484,6.47824568 C42.3285484,5.45779031 42.1729365,5.10167832 40.9220557,4.97599174 C40.7933766,4.9490589 40.745496,4.9490589 40.6407572,4.9490589 L40.6407572,4.9490589 L40.6198094,4.59294691 L40.9759214,4.61688721 C41.8706902,4.69768573 42.2268022,4.74556633 42.7086007,4.74556633 L42.7086007,4.74556633 L43.5495038,4.74556633 C44.0342949,4.74556633 44.3904069,4.69768573 45.2821832,4.61688721 L45.2821832,4.61688721 L45.6412877,4.59294691 Z M49.9966271,15.1703708 C49.9218137,15.1703708 49.8410152,15.1913185 49.7751793,15.227229 C49.7033584,15.2691245 49.6524853,15.3259827 49.6105897,15.3918186 C49.5686942,15.4636395 49.550739,15.5354604 49.550739,15.6162589 C49.550739,15.7000499 49.5686942,15.7688783 49.6105897,15.8377067 C49.6524853,15.9065351 49.7033584,15.9633933 49.7781719,16.0022963 C49.8440077,16.0411993 49.9218137,16.0651396 49.9966271,16.0651396 C50.0744331,16.0651396 50.1522391,16.0411993 50.2180749,16.0022963 C50.2898958,15.9604007 50.340769,15.9065351 50.385657,15.8377067 C50.42456,15.7688783 50.4395227,15.7000499 50.4395227,15.6162589 C50.4395227,15.5354604 50.42456,15.4636395 50.3826645,15.3918186 C50.340769,15.3259827 50.2898958,15.2691245 50.2180749,15.227229 C50.1522391,15.1913185 50.0744331,15.1703708 49.9966271,15.1703708 Z M50.029545,15.3170051 C50.0864032,15.3170051 50.1312913,15.3229902 50.1552316,15.3349603 C50.1821645,15.343938 50.2001197,15.3618932 50.2150824,15.388826 C50.2300451,15.4157589 50.2390227,15.4486768 50.2390227,15.4815947 C50.2390227,15.5115201 50.2330376,15.5384529 50.2210674,15.5623932 C50.2120898,15.5773559 50.1941346,15.5923186 50.1672018,15.6132664 C50.1911421,15.6252365 50.2090973,15.6401992 50.2210674,15.6581544 C50.2300451,15.6791022 50.2330376,15.7090276 50.2330376,15.7479306 L50.2330376,15.8167589 C50.2330376,15.8436918 50.2420152,15.8706246 50.2539854,15.8915724 L50.2659555,15.9065351 L50.1612167,15.9065351 C50.1552316,15.8825948 50.1492465,15.8556619 50.146254,15.822744 L50.1402689,15.7479306 C50.1402689,15.7209977 50.1372764,15.706035 50.1312913,15.6940649 C50.1193212,15.6820947 50.1103435,15.6761096 50.0953809,15.667132 C50.0864032,15.6641395 50.0594704,15.661147 50.0265525,15.661147 L49.8739331,15.661147 L49.8739331,15.9065351 L49.7841569,15.9065351 L49.7841569,15.3170051 L50.029545,15.3170051 Z M19.8444155,5.15314997 C16.8847956,5.15314997 15.0473775,7.49929955 15.328676,10.3571731 C15.6309223,13.2150466 17.7735793,15.5851365 20.9127514,15.5851365 C23.8693787,15.5851365 25.7067969,13.2150466 25.4254983,10.3571731 C25.0933266,7.49929955 22.9746099,5.15314997 19.8444155,5.15314997 Z M5.61100824,0.613470235 C4.00401548,0.613470235 3.69279156,0.688283678 3.69279156,1.86435101 L3.69279156,1.86435101 L3.69279156,8.39406833 L6.73021736,8.39406833 C8.70229972,7.92124737 10.228494,6.5117621 10.228494,4.43793345 C10.228494,2.4748287 8.69631464,0.613470235 5.61100824,0.613470235 Z" id="path-1"></path>
    </defs>
    <g id="Nav" stroke="none" stroke-width="1" fill="none" fill-rule="evenodd">
        <g id="THOR-KBIS_Nav-Tablet" transform="translate(-464.000000, -762.000000)">
            <g id="Showrooms" transform="translate(52.000000, 676.000000)">
                <g id="All-Brands/Horizontal" transform="translate(0.000000, 66.000000)">
                    <g id="Logo/Rohl/Black" transform="translate(412.644108, 20.105664)">
                        <g id="Rohl">
                            <mask id="mask-2" fill="white">
                                <use xlink:href="#path-1"></use>
                            </mask>
                            <use id="Combined-Shape" fill="#84754E" xlink:href="#path-1"></use>
                            <g id="Colors/Black" mask="url(#mask-2)" fill="#FFFFFF">
                                <rect id="Rectangle" x="0" y="0" width="51.2091993" height="17.0697331"></rect>
                            </g>
                        </g>
                    </g>
                </g>
            </g>
        </g>
    </g>
</svg>