<?xml version="1.0" encoding="UTF-8"?>
<svg width="64px" height="63px" viewBox="0 0 64 63" version="1.1" xmlns="http://www.w3.org/2000/svg" xmlns:xlink="http://www.w3.org/1999/xlink">
    <title>Logos/Shaws/Black</title>
    <defs>
        <path d="M31.292967,-2.13162821e-14 L62.5919192,31.2959596 L31.292967,62.5919192 L-9.23705556e-14,31.2959596 L31.292967,-2.13162821e-14 Z M31.292967,2.17856747 L2.17557493,31.2959596 L31.292967,60.4163442 L60.4133517,31.2959596 L31.292967,2.17856747 Z M27.7366352,39.9581593 C27.9072099,39.9581593 28.0717994,39.9761145 28.2274114,40.012025 C28.3800308,40.0479354 28.5775383,40.1197563 28.8139488,40.2185101 L28.8139488,40.2185101 L28.8139488,40.6643982 C28.4488592,40.4549206 28.0867621,40.3471892 27.7276576,40.3471892 C27.3924934,40.3471892 27.1111948,40.4638982 26.8807694,40.6883385 C26.6533365,40.9157714 26.5396201,41.1970699 26.5396201,41.5262491 C26.5396201,41.8793685 26.6533365,42.1606671 26.8807694,42.3791223 C27.1111948,42.6035627 27.4074561,42.7142865 27.7665606,42.7142865 C27.9431203,42.7142865 28.152598,42.6693985 28.397986,42.594585 L28.397986,42.594585 L28.4398816,42.5796224 L28.4398816,41.9422118 L27.8473591,41.9422118 L27.8473591,41.5501894 L28.8767921,41.5501894 L28.8767921,42.8489507 C28.4997323,43.0105478 28.1256651,43.0943388 27.7545904,43.0943388 C27.245859,43.0943388 26.8418664,42.9477045 26.5396201,42.6484507 C26.2343813,42.355182 26.0847544,41.9900924 26.0847544,41.5531819 C26.0847544,41.0983162 26.2403663,40.7182639 26.5545828,40.4100325 C26.8687993,40.1107787 27.2638142,39.9581593 27.7366352,39.9581593 Z M34.2606667,39.9776108 L35.6342415,43.0629172 L35.1853609,43.0629172 L34.7753832,42.1501932 L33.4706368,42.1501932 L33.0875919,43.0629172 L32.6357187,43.0629172 L33.9524353,39.9776108 L34.2606667,39.9776108 Z M36.9665193,39.9958653 L39.0313704,42.3749328 L39.0313704,39.9958653 L39.4473331,39.9958653 L39.4473331,43.0602239 L39.0702734,43.0602239 L37.0233775,40.6991116 L37.0233775,43.0602239 L36.6104073,43.0602239 L36.6104073,39.9958653 L36.9665193,39.9958653 Z M22.4290703,39.9958653 L24.4939213,42.3749328 L24.4939213,39.9958653 L24.9098841,39.9958653 L24.9098841,43.0602239 L24.5298318,43.0602239 L22.482936,40.6991116 L22.482936,43.0602239 L22.0729583,43.0602239 L22.0729583,39.9958653 L22.4290703,39.9958653 Z M30.5828378,39.9958653 L30.5828378,42.6622164 L31.9623977,42.6622164 L31.9623977,43.0572314 L30.1429348,43.0572314 L30.1429348,39.9958653 L30.5828378,39.9958653 Z M20.9226268,39.996763 L20.9226268,40.3887855 L19.6238654,40.3887855 L19.6238654,41.3194647 L20.8777387,41.3194647 L20.8777387,41.7144797 L19.6238654,41.7144797 L19.6238654,42.6631142 L20.9615298,42.6631142 L20.9615298,43.0521441 L19.1839624,43.0521441 L19.1839624,39.996763 L20.9226268,39.996763 Z M41.7665498,39.996763 C42.1855051,39.996763 42.5146843,40.0566138 42.7570798,40.1823004 C42.9994754,40.307987 43.1909978,40.4935243 43.3346396,40.7359199 C43.4782814,40.9783154 43.5501023,41.2446513 43.5501023,41.5259498 C43.5501023,41.7354275 43.5111993,41.9269499 43.4304008,42.1184723 C43.3525948,42.3010171 43.241871,42.4685992 43.0952366,42.612241 C42.9456097,42.7558828 42.7720425,42.8666067 42.574535,42.9384276 C42.4578261,42.9863082 42.3530872,43.0162336 42.257326,43.0311963 C42.1585723,43.046159 41.9760275,43.0521441 41.7037066,43.0521441 L41.7037066,43.0521441 L40.7341243,43.0521441 L40.7341243,39.996763 Z M41.7216618,40.3887855 L41.1740274,40.3887855 L41.1740274,42.6631142 L41.7336319,42.6631142 C41.9550797,42.6631142 42.1256544,42.6481515 42.2453559,42.6212186 C42.3650574,42.5912932 42.4668037,42.5493977 42.5505947,42.5075022 C42.6313933,42.4596216 42.7032142,42.3997708 42.7720425,42.3369275 C42.9875052,42.1184723 43.0982291,41.8401663 43.0982291,41.5050021 C43.0982291,41.1758229 42.9845127,40.9064945 42.7630649,40.7000094 C42.6822664,40.625196 42.5865052,40.5563676 42.4817664,40.5114795 C42.374035,40.4606064 42.2752813,40.4246959 42.1795201,40.4097332 C42.0837588,40.3947706 41.9311394,40.3887855 41.7216618,40.3887855 L41.7216618,40.3887855 Z M34.1020622,40.6509318 L33.6442039,41.7611633 L34.5958309,41.7611633 L34.1020622,40.6509318 Z M35.0288511,25.8764738 L35.0288511,25.9901902 C35.0288511,26.2595186 35.1126422,26.489944 35.1994258,26.7054067 L35.1994258,26.7054067 L37.9435829,33.3937285 L39.2513219,30.2096684 L38.0543068,27.4625188 C37.6981948,26.6305933 37.4109112,26.1039066 37.2134037,25.8764738 L37.2134037,25.8764738 L39.0687771,25.8764738 L39.0687771,25.9901902 C39.0687771,26.2595186 39.1555607,26.489944 39.2393517,26.7054067 L39.2393517,26.7054067 L39.9635459,28.471004 L40.7027027,26.6754813 C40.8164191,26.4031604 40.8613072,26.1757275 40.8613072,26.0620111 C40.8613072,26.0470484 40.8613072,25.9752275 40.8463445,25.8764738 L40.8463445,25.8764738 L42.746606,25.8764738 C42.4473522,26.2056529 42.1750312,26.7473022 41.8338819,27.4924441 L41.8338819,27.4924441 L40.6368669,30.1079221 L41.9865014,33.3937285 L44.7456212,26.6754813 C44.8593376,26.4031604 44.9012331,26.1757275 44.9012331,26.0620111 C44.9012331,26.0470484 44.9012331,25.9752275 44.8862704,25.8764738 L44.8862704,25.8764738 L46.7895244,25.8764738 C46.4902707,26.2056529 46.2179497,26.7473022 45.8738079,27.4924441 L45.8738079,27.4924441 L42.0283969,35.9134453 L41.7411133,35.9134453 L39.9066876,31.7059373 L37.988471,35.9134453 L37.7011873,35.9134453 L34.0113883,27.4625188 C33.6552763,26.6305933 33.3679927,26.1039066 33.1704852,25.8764738 L33.1704852,25.8764738 L35.0288511,25.8764738 Z M13.0501578,25.7325327 C14.2262251,25.7325327 14.4805908,26.0557268 15.2556581,26.0557268 L15.2556581,26.0557268 L14.7529118,27.4023687 C14.1933072,27.0073538 13.6097623,26.8038612 12.9663667,26.8038612 C12.0656129,26.8038612 11.5508964,27.2497493 11.5508964,27.9320479 C11.5508964,28.8058689 12.2780831,29.3355481 13.4092623,30.1914139 C14.6242326,31.1220931 15.3514193,31.8522723 15.3514193,33.1779666 C15.3514193,34.8088996 14.22024,35.8951908 12.233195,35.8951908 C11.0571277,35.8951908 10.7668515,35.5390788 9.99178423,35.5390788 L9.99178423,35.5390788 L10.0815604,34.126601 C10.6381724,34.5276011 11.5927919,34.7789742 12.2361875,34.7789742 C13.3494116,34.7789742 14.0376952,34.1355786 14.0376952,33.2647502 C14.0376952,32.223347 13.0082623,31.6248395 11.6646128,30.4786975 C10.6920381,29.646772 10.2072469,28.9345481 10.2072469,28.093645 C10.2072469,26.7200701 11.2995232,25.7325327 13.0501578,25.7325327 Z M50.3006689,25.7325327 C51.4737437,25.7325327 51.7281094,26.0557268 52.5031767,26.0557268 L52.5031767,26.0557268 L52.0004304,27.4023687 C51.4408258,27.0073538 50.857281,26.8038612 50.2138854,26.8038612 C49.3131315,26.8038612 48.798415,27.2497493 48.798415,27.9320479 C48.798415,28.8058689 49.5256017,29.3355481 50.6567809,30.1914139 C51.8717513,31.1220931 52.5989379,31.8522723 52.5989379,33.1779666 C52.5989379,34.8088996 51.4677587,35.8951908 49.4807136,35.8951908 C48.3046463,35.8951908 48.0143701,35.5390788 47.2393029,35.5390788 L47.2393029,35.5390788 L47.329079,34.126601 C47.885691,34.5276011 48.837318,34.7789742 49.4837061,34.7789742 C50.5969302,34.7789742 51.2852139,34.1355786 51.2852139,33.2647502 C51.2852139,32.223347 50.2557809,31.6248395 48.9121314,30.4786975 C47.9395567,29.646772 47.4547656,28.9345481 47.4547656,28.093645 C47.4547656,26.7200701 48.5470418,25.7325327 50.3006689,25.7325327 Z M30.6660304,25.7313357 L34.3558294,34.1822622 C34.7119414,35.0111952 34.999225,35.5408744 35.1967325,35.7683072 L35.1967325,35.7683072 L33.3383666,35.7683072 L33.3383666,35.6575833 C33.3383666,35.3822699 33.251583,35.154837 33.1677919,34.9393743 L33.1677919,34.9393743 L32.4854933,33.2785158 L28.3557913,33.2785158 L27.664515,34.9663071 C27.5507986,35.238628 27.5059105,35.4660609 27.5059105,35.5827699 C27.5059105,35.59474 27.5059105,35.6665609 27.5208732,35.7683072 L27.5208732,35.7683072 L25.6206118,35.7683072 C25.9198656,35.4391281 26.1891939,34.8944862 26.5333358,34.1553294 L26.5333358,34.1553294 L30.3787468,25.7313357 L30.6660304,25.7313357 Z M18.9149332,25.8761745 C18.7593213,26.157473 18.6725377,26.6901448 18.6725377,27.4622195 L18.6725377,27.4622195 L18.6725377,29.9370482 L23.0446353,29.9370482 L23.0446353,27.4622195 C23.0446353,26.7320403 22.9728144,26.2053537 22.8022397,25.8761745 L22.8022397,25.8761745 L24.6336728,25.8761745 C24.4481355,26.2322865 24.3882847,26.747003 24.3882847,27.4622195 L24.3882847,27.4622195 L24.3882847,34.1684966 C24.3882847,34.877728 24.4481355,35.395437 24.6336728,35.7395789 L24.6336728,35.7395789 L22.8022397,35.7395789 C22.9728144,35.4103997 23.0446353,34.8956832 23.0446353,34.1684966 L23.0446353,34.1684966 L23.0446353,31.0652349 L18.6725377,31.0652349 L18.6725377,34.1684966 C18.6725377,34.9525414 18.7593213,35.4672579 18.9149332,35.7395789 L18.9149332,35.7395789 L17.0835001,35.7395789 C17.2421046,35.4403251 17.3139255,34.9256086 17.3139255,34.1684966 L17.3139255,34.1684966 L17.3139255,27.4622195 C17.3139255,26.7200701 17.2570673,26.190391 17.0835001,25.8761745 L17.0835001,25.8761745 Z M30.4236348,28.2480599 L28.8286122,32.1293813 L32.0156649,32.1293813 L30.4236348,28.2480599 Z M28.8597346,15.4932656 C29.2038765,15.4932656 29.4941526,15.606982 29.7305631,15.8314224 C29.9699661,16.0528701 30.0866751,16.3281836 30.0866751,16.6513777 C30.0866751,17.0194598 29.9161004,17.3276912 29.5719586,17.5670942 C29.9550034,17.782557 30.1435333,18.1087436 30.1435333,18.5366765 C30.1435333,18.8778258 30.0208393,19.1591243 29.7724586,19.3835646 C29.524078,19.6050124 29.2128541,19.7187289 28.8328018,19.7187289 C28.4587346,19.7187289 28.1475106,19.6050124 27.8931449,19.374587 C27.6417718,19.1471542 27.5130926,18.8658556 27.5130926,18.5306914 C27.5130926,18.1117361 27.7076076,17.788542 28.0966375,17.5670942 C27.9200778,17.4234524 27.7973837,17.2798106 27.7225703,17.1391613 C27.6447643,16.9985121 27.6088538,16.8399076 27.6088538,16.6513777 C27.6088538,16.3341687 27.7285554,16.0588552 27.9709509,15.8344149 C28.2103539,15.6099746 28.5096077,15.4932656 28.8597346,15.4932656 Z M32.5255933,15.4947619 C32.9116307,15.4947619 33.2318322,15.6354111 33.4802129,15.9197022 C33.725601,16.1980082 33.8512876,16.5601053 33.8512876,17.0000083 C33.8512876,17.4997621 33.6956756,18.005501 33.3844517,18.5142324 C33.0732277,19.0289489 32.6782128,19.4269564 32.1964142,19.7172326 L32.1964142,19.7172326 L31.8343171,19.2892997 C32.1365634,19.0977773 32.4028993,18.8643593 32.6333247,18.5890459 C32.8607576,18.3137324 33.013377,18.0354264 33.091183,17.7421577 C32.9026531,17.8588667 32.6841978,17.9187174 32.4328247,17.9187174 C32.1186082,17.9187174 31.8462873,17.7990159 31.6188544,17.565598 C31.3974066,17.33218 31.2836902,17.0508815 31.2836902,16.7217023 C31.2836902,16.380553 31.4033917,16.0902769 31.6457872,15.8508739 C31.8851903,15.6144634 32.1754664,15.4947619 32.5255933,15.4947619 Z M37.773906,15.5510216 L35.909555,19.7166341 L35.3798758,19.4951863 L36.8881148,16.1106261 L35.1045624,16.1106261 L35.1045624,15.5510216 L37.773906,15.5510216 Z M25.6535297,15.546832 L25.6535297,19.670549 L25.0639998,19.670549 L25.0639998,15.546832 L25.6535297,15.546832 Z M28.8208316,17.8633555 C28.6143465,17.8633555 28.4407793,17.9261988 28.3091077,18.0459003 C28.1744435,18.1626092 28.1086076,18.3212137 28.1086076,18.5097436 C28.1086076,18.7042586 28.177436,18.856878 28.3121002,18.979572 C28.4497569,19.0992736 28.6233241,19.1561318 28.8417794,19.1561318 C29.0482645,19.1561318 29.2158466,19.1022661 29.3475183,18.9915422 C29.4821825,18.8808183 29.5480183,18.7371765 29.5480183,18.5666018 L29.5480183,18.5666018 L29.5480183,18.5037585 C29.5480183,18.3182212 29.4821825,18.1596167 29.3475183,18.0459003 C29.2128541,17.9261988 29.0392869,17.8633555 28.8208316,17.8633555 Z M32.5285859,16.0394037 C32.340056,16.0394037 32.1814515,16.102247 32.0557649,16.2309261 C31.9300783,16.3596053 31.867235,16.5212023 31.867235,16.7157173 C31.867235,16.8952695 31.9360634,17.0508815 32.0707276,17.1795606 C32.2083843,17.3082397 32.3669888,17.3740756 32.5585113,17.3740756 C32.779959,17.3740756 32.9924292,17.3022546 33.2048994,17.1586128 C33.2288397,17.0000083 33.2408099,16.8952695 33.2408099,16.8503815 C33.2408099,16.6109784 33.174974,16.4164635 33.0433024,16.2638441 C32.9086382,16.1142172 32.7380635,16.0394037 32.5285859,16.0394037 Z M28.8477645,16.0558627 C28.6562421,16.0558627 28.5006301,16.1127209 28.3749435,16.2294299 C28.255242,16.3431463 28.1953912,16.4867881 28.1953912,16.6633478 C28.1953912,16.8399076 28.2582345,16.9865419 28.3869137,17.1062434 C28.5155928,17.2289375 28.6712047,17.2887882 28.850757,17.2887882 C29.0303093,17.2887882 29.1829287,17.2289375 29.3086153,17.109236 C29.4343019,16.9865419 29.5001377,16.8429001 29.5001377,16.6723255 C29.5001377,16.4927732 29.4372944,16.3461388 29.3146004,16.2324224 C29.1919063,16.1127209 29.0362943,16.0558627 28.8477645,16.0558627 Z" id="path-1"></path>
    </defs>
    <g id="Nav" stroke="none" stroke-width="1" fill="none" fill-rule="evenodd">
        <g id="THOR-KBIS_Nav-Tablet" transform="translate(-348.000000, -742.000000)">
            <g id="Showrooms" transform="translate(52.000000, 676.000000)">
                <g id="All-Brands/Horizontal" transform="translate(0.000000, 66.000000)">
                    <g id="Logos/Shaws/Black" transform="translate(296.586612, 0.000000)">
                        <mask id="mask-2" fill="white">
                            <use xlink:href="#path-1"></use>
                        </mask>
                        <use id="Combined-Shape" fill="#FFFFFF" xlink:href="#path-1"></use>
                    </g>
                </g>
            </g>
        </g>
    </g>
</svg>