<?xml version="1.0" encoding="UTF-8"?>
<svg width="100px" height="101px" viewBox="0 0 100 101" version="1.1" xmlns="http://www.w3.org/2000/svg" xmlns:xlink="http://www.w3.org/1999/xlink">
    <title>thor-seal</title>
    <defs>
        <path d="M56.8768657,1.23656716 C84.1358209,5.06791045 103.197015,30.3619403 99.3664179,57.6223881 C95.5350746,84.8835821 70.2395522,103.94403 42.980597,100.112687 L42.980597,100.11194 C15.719403,96.2813433 -3.34104478,70.9858209 0.489552239,43.7261194 C4.32089552,16.4656716 29.6164179,-2.59477612 56.8768657,1.23656716 Z M1.44626866,43.8604478 C-2.31044776,70.5932836 16.380597,95.3985075 43.1149254,99.1559701 C69.8477612,102.912687 94.6522388,84.2208955 98.4097015,57.4873134 C102.167164,30.7544776 83.4753731,5.94850746 56.741791,2.19179104 C30.0089552,-1.56567164 5.20373134,17.1268657 1.44626866,43.8604478 Z M56.2029851,6.02164179 C80.8253731,9.48208955 98.0410448,32.3291045 94.5798507,56.95 C91.1201493,81.5716418 68.2738806,98.7873134 43.6529851,95.3268657 C19.0313433,91.8656716 1.81492537,69.0208955 5.27462687,44.3985075 C8.7358209,19.7776119 31.5820896,2.56119403 56.2029851,6.02164179 Z M6.23134328,44.5335821 C2.84552239,68.6276119 19.6940299,90.9843284 43.7880597,94.3708955 C67.8820896,97.7567164 90.2395522,80.9097015 93.6253731,56.8156716 C97.0119403,32.7208955 80.1649254,10.3634328 56.0701493,6.97761194 L56.069403,6.97761194 C31.9746269,3.59104478 9.61791045,20.4380597 6.23134328,44.5335821 Z M55.1425373,79.0149254 L55.7656716,85.3179104 L54.8119403,85.4134328 L54.5253731,82.5029851 L51.580597,82.7932836 L51.8679104,85.7029851 L50.9149254,85.7992537 L50.330597,79.8910448 L50.0567164,79.5171642 L51.2440299,79.3977612 L51.5097015,82.0746269 L54.4544776,81.7850746 L54.230597,79.5052239 L53.9552239,79.1313433 L55.1425373,79.0149254 Z M39.0895522,77.2425373 C39.3753207,77.2699052 39.6558802,77.3369682 39.9231343,77.441791 C40.3257165,77.5940086 40.6936722,77.8254401 41.0052239,78.1223881 C41.3074627,78.4141791 41.5425373,78.7492537 41.7119403,79.1223881 C41.880146,79.4957063 41.9739362,79.8982437 41.9880597,80.3074627 C42.0018148,80.7362193 41.9281817,81.1632912 41.7716418,81.5626866 C41.5771935,82.0839504 41.2490503,82.5448951 40.8201493,82.8992537 C40.3915011,83.2543644 39.8742376,83.4860366 39.3238806,83.569403 C39.2406301,83.5789023 39.1577423,83.5913479 39.0753731,83.6067164 C38.9941247,83.6202865 38.912498,83.6314853 38.830597,83.6402985 C38.550008,83.6796984 38.2658607,83.6872089 37.9835821,83.6626866 C37.6995117,83.6352832 37.4206819,83.5682133 37.1552239,83.4634328 C36.3609124,83.1651742 35.7166243,82.565144 35.3626866,81.7940299 C35.1942753,81.4188369 35.0997651,81.0146983 35.0843284,80.6037313 C35.066856,80.1745397 35.1385118,79.7463839 35.2947761,79.3462687 C35.4894789,78.8238711 35.8224901,78.3642073 36.258209,78.0164179 C36.6941224,77.6694203 37.2110293,77.4388279 37.7604478,77.3462687 L37.9985075,77.3089552 C38.0783582,77.2940299 38.1552239,77.2835821 38.2373134,77.2686567 C38.5192833,77.2254288 38.8054644,77.2166579 39.0895522,77.2425373 Z M38.1589552,77.788806 C37.9380597,77.8291045 37.7335821,77.9007463 37.5440299,78.0067164 C37.1615848,78.2189448 36.8373453,78.5221665 36.6,78.8895522 C36.4799317,79.0698929 36.381022,79.2634554 36.3052239,79.4664179 C36.0424035,80.1307019 36.0480229,80.8711249 36.3208955,81.5313433 C36.5989286,82.1905554 37.1351977,82.7068627 37.8044776,82.9597015 C37.9880597,83.0298507 38.1723881,83.0828358 38.3537313,83.1208955 C38.5343284,83.1597015 38.7223881,83.1626866 38.9171642,83.1238806 C39.1307106,83.0874996 39.3365863,83.0153422 39.5261194,82.9104478 C39.9123122,82.6986465 40.2394006,82.3936205 40.4776119,82.0231343 C40.5992537,81.8343284 40.6962687,81.6440299 40.7708955,81.4485075 C40.9029851,81.1022388 40.9686567,80.7492537 40.9641791,80.3910448 C40.9615209,80.0429051 40.8899979,79.6987326 40.7537313,79.3783582 C40.6186897,79.060457 40.4235818,78.771596 40.1791045,78.5276119 C39.9203539,78.2724503 39.6106017,78.0748497 39.2701493,77.9477612 C39.0932374,77.8774094 38.9097389,77.8249099 38.7223881,77.7910448 C38.5361189,77.7577312 38.3454833,77.7569737 38.1589552,77.788806 Z M63.9059701,75.761194 L66.7253731,80.6343284 L68.8798507,79.3880597 L69,80.1320896 L66.2492537,81.7238806 L63.2768657,76.5880597 L62.8723881,76.3589552 L63.9059701,75.761194 Z M28.0649254,69.4283582 L29.8067164,71.1701493 C29.9835821,71.3477612 30.1186567,71.5470149 30.2119403,71.7664179 C30.4005203,72.2013274 30.4088405,72.6932908 30.2350746,73.1343284 C30.1464961,73.3616307 30.0097865,73.5670769 29.8343284,73.7365672 C29.6014925,73.9708955 29.3343284,74.1261194 29.0335821,74.2037313 C28.7350746,74.2828358 28.4291045,74.2820896 28.1119403,74.2029851 C27.9857924,74.1742647 27.8614473,74.1381323 27.7395522,74.0947761 C27.6167034,74.0468887 27.5062475,73.9718909 27.4164179,73.8753731 L27.0216418,77.3477612 L26.1783582,76.5044776 L26.1776119,76.5044776 L26.5671642,73.3223881 L26.211194,72.9649254 L24.4238806,74.7507463 L23.7470149,74.0708955 L27.9485075,69.8776119 L28.0649254,69.4283582 Z M28.4097015,70.7701493 L26.691791,72.4858209 L27.5529851,73.3492537 C27.5977612,73.3932836 27.6574627,73.438806 27.730597,73.4880597 C27.8059701,73.538806 27.8701493,73.5716418 27.9283582,73.5902985 L28.0029851,73.5955224 C28.0380597,73.5955224 28.0641791,73.5962687 28.0820896,73.5932836 C28.2460028,73.5944405 28.4084591,73.562457 28.5597015,73.4992537 C28.7134328,73.4358209 28.8485075,73.3470149 28.9679104,73.2261194 C29.2208887,72.9741834 29.3630956,72.6326184 29.3641791,72.2761194 C29.3623483,72.1040183 29.3286976,71.9337406 29.2649254,71.7738806 C29.1985175,71.6064887 29.0972735,71.4551315 28.9679104,71.3298507 L28.4097015,70.7701493 Z M34.1992537,44.008209 C34.6850746,40.5507463 37.7768657,37.0320896 43.35,37.8156716 C48.4104478,38.5268657 50.2365672,41.530597 49.8664179,44.1686567 C49.5925373,46.1156716 48.1276119,47.858209 45.8738806,48.3776119 C47.530597,48.7268657 47.8492537,50.3201493 47.7522388,52.1104478 C47.7522388,52.1104478 47.5261194,54.7231343 47.3791045,56.5201493 C47.0850746,60.0977612 48.1432836,63.6052239 51.9910448,64.1455224 C54.0410448,64.4343284 55.7141791,63.408209 56.0544776,60.9873134 C56.0768657,60.8313433 56.0753731,60.708209 56.0753731,60.6761194 C56.0753731,60.6761194 56.1052239,60.6574627 56.1373134,60.6619403 C56.2447761,60.6768657 56.2492537,60.8350746 56.241791,60.9141791 C56.2343284,61.0141791 56.2268657,61.1134328 56.2119403,61.2126866 C55.8798507,63.5791045 54.2074627,64.7171642 51.8686567,64.3880597 C48.1768657,63.869403 46.2992537,60.7298507 46.2470149,56.6402985 C46.2246269,55.5604478 46.5619403,52.2947761 46.5791045,52.1686567 C46.8298507,50.3850746 46.7328358,48.7201493 45.180597,48.4828358 C44.9313433,48.5223881 44.6701493,48.5223881 44.3902985,48.5208955 C44.1649254,49.7507463 43.9402985,50.8507463 43.6216418,51.8828358 C42.4432836,55.8 39.7738806,58.3007463 36.080597,57.7820896 C33.7902985,57.4597015 32.4067164,55.8925373 32.7395522,53.5261194 C32.752553,53.442749 32.7684832,53.3598619 32.7873134,53.2776119 C32.8044776,53.2074627 32.838806,53.0522388 32.9776119,53.0716418 C33.0033264,53.0768179 33.0280273,53.0861438 33.0507463,53.0992537 C33.033941,53.185736 33.0190121,53.2725723 33.0059701,53.3597015 C32.6656716,55.7798507 33.9813433,57.2268657 36.0313433,57.5149254 C39.8783582,58.0552239 41.8626866,54.9746269 42.5656716,51.4559701 C42.9186567,49.6865672 43.1656716,48.1813433 43.4671642,46.9059701 C44.0246269,44.4880597 44.880597,42.941791 46.5149254,42.0231343 C46.5858209,41.9828358 46.6276119,41.9649254 46.6626866,41.9701493 C46.7253731,41.9791045 46.7641791,42.030597 46.758209,42.1089552 C46.4746269,42.2902985 46.2037313,42.5932836 45.9791045,42.9179104 C45.1492537,44.1179104 44.9835821,45.541791 44.7014925,46.9320896 L44.7014925,46.9320896 L44.4283582,48.2477612 C46.6738806,48.2664179 48.3462687,46.2940299 48.6567164,44.0910448 C49.0119403,41.5619403 47.5992537,38.7097015 43.188806,38.0902985 C38.1985075,37.3880597 35.2208955,40.8298507 34.758209,44.1238806 C34.3977612,46.6895522 35.5477612,49.1708955 38.4358209,49.5761194 C39.1955224,49.6835821 39.8559701,49.6522388 40.4410448,49.5 C40.4723881,49.541791 40.508209,49.6022388 40.5007463,49.6626866 C40.4996442,49.6796258 40.4928001,49.6956832 40.4813433,49.708209 C40.0470149,49.8962687 39.1783582,50.1074627 38.1216418,49.9589552 C35.0962687,49.5343284 33.808209,46.791791 34.1992537,44.008209 Z M41.2059701,58.5634328 C41.238806,58.5679104 41.261194,58.5940299 41.261194,58.5940299 C41.2522388,58.6253731 41.2179104,58.7432836 41.1955224,58.8977612 C40.8552239,61.319403 42.1813433,62.7671642 44.2320896,63.0544776 C45.5731343,63.2440299 46.6873134,62.9925373 47.6007463,62.4350746 C47.6892137,62.5495935 47.7818121,62.6608609 47.8783582,62.7686567 C46.830597,63.3007463 45.6238806,63.5104478 44.2828358,63.3216418 C41.9425373,62.9932836 40.65,61.4380597 40.9835821,59.0723881 C40.9955224,58.9731343 41.0164179,58.8738806 41.0358209,58.7768657 C41.0514925,58.6992537 41.0977612,58.5485075 41.2059701,58.5634328 Z M51.780597,44.4380597 C52.1514925,41.7992537 54.7350746,39.4156716 59.7947761,40.1276119 C65.3679104,40.9104478 67.3708955,45.1447761 66.8843284,48.6022388 C66.4940299,51.3858209 64.4992537,53.6664179 61.4731343,53.241791 C60.4171642,53.0932836 59.6410448,52.65 59.2753731,52.3492537 C59.2679104,52.3365672 59.2656716,52.3231343 59.2679104,52.3007463 C59.2768657,52.2402985 59.3283582,52.1925373 59.3708955,52.1597015 C59.8902985,52.4679104 60.5171642,52.6798507 61.2768657,52.7865672 C64.1649254,53.1925373 65.9552239,51.1246269 66.3156716,48.5589552 C66.7783582,45.2649254 64.8649254,41.1365672 59.8738806,40.4350746 C55.4634328,39.8156716 53.3201493,42.1679104 52.9649254,44.6962687 C52.6552239,46.8992537 53.7186567,49.2567164 55.8828358,49.8574627 L55.8828358,49.8574627 L55.9835821,48.5179104 C56.0947761,47.1044776 56.3283582,45.6895522 55.861194,44.3067164 C55.7350746,43.9328358 55.5574627,43.5671642 55.3350746,43.3149254 C55.3507463,43.2373134 55.4022388,43.1985075 55.4664179,43.2074627 C55.5,43.2119403 55.5358209,43.2410448 55.5932836,43.2992537 C56.9104478,44.6320896 57.3074627,46.3552239 57.1776119,48.8335821 C57.1156716,50.141791 56.9365672,51.6567164 56.7895522,53.4552239 C56.4955224,57.0313433 57.5544776,60.5402985 61.4014925,61.080597 C63.4514925,61.3679104 65.1134328,60.3410448 65.4537313,57.9201493 C65.4653807,57.8327885 65.4753329,57.7452098 65.4835821,57.6574627 C65.5087448,57.6515338 65.5346713,57.6495201 65.5604478,57.6514925 C65.7,57.6701493 65.6902985,57.8291045 65.6865672,57.9014925 C65.6819099,57.9857976 65.6744431,58.0699239 65.6641791,58.1537313 C65.3313433,60.5201493 63.5701493,61.6455224 61.2791045,61.3231343 C57.5865672,60.8044776 55.7097015,57.6641791 55.6567164,53.5746269 C55.6343284,52.4947761 55.7208955,51.3753731 55.8447761,50.130597 C55.5753731,50.0552239 55.3246269,49.9828358 55.0955224,49.8768657 C53.5373134,49.6761194 52.9850746,51.2507463 52.7350746,53.0343284 C52.7171642,53.1597015 52.1410448,56.391791 51.8216418,57.4238806 C51.2313433,59.3850746 50.2671642,60.991791 48.9880597,62.041791 C48.8708955,61.8902985 48.7619403,61.7298507 48.6619403,61.5656716 C49.7365672,60.4223881 50.4126866,58.7656716 50.7664179,56.9970149 C51.119403,55.2283582 51.6238806,52.6544776 51.6238806,52.6544776 C52.0231343,50.9067164 52.7686567,49.4634328 54.4574627,49.5835821 C52.4350746,48.4634328 51.5074627,46.3843284 51.780597,44.4380597 Z M86.4783582,47.8537313 L86.5738806,51.7544776 L85.8626866,51.5014925 L85.8014925,49.0649254 L83.5738806,49.119403 L83.6410448,51.8238806 L82.9291045,51.5701493 L82.8716418,49.1373134 L80.1716418,49.2022388 L80.1492537,48.2440299 L86.0843284,48.1 L86.4783582,47.8537313 Z M16.2880597,36.0507463 L22.2522388,38.1925373 L21.9276119,39.0940299 L19.1753731,38.1044776 L18.1768657,40.891791 L20.9283582,41.8761194 L20.6059701,42.7791045 L15.0164179,40.7753731 L14.561194,40.8597015 L14.9634328,39.7395522 L17.4962687,40.6455224 L18.4962687,37.861194 L16.341791,37.0873134 L15.8850746,37.1738806 L16.2880597,36.0507463 Z M79.9320896,32.6074627 C80.4843284,32.6477612 81.0022388,32.8268657 81.4858209,33.1410448 C81.5529851,33.1843284 81.6186567,33.2283582 81.6873134,33.2716418 L81.8873134,33.4059701 C82.1313433,33.5723881 82.3470149,33.7589552 82.5328358,33.9701493 C82.7179104,34.1761194 82.8776119,34.4156716 83.008209,34.6798507 C83.2000377,35.0653736 83.311739,35.4857767 83.3365672,35.9156716 C83.3598739,36.3263956 83.3054383,36.7378278 83.1761194,37.1283582 C82.9071578,37.9328839 82.3225762,38.5934341 81.5567164,38.958209 C81.0595413,39.2079118 80.5054291,39.3224403 79.95,39.2902985 C79.3945503,39.2572405 78.8583019,39.0749677 78.3977612,38.7626866 C78.3261194,38.7126866 78.258209,38.6634328 78.1925373,38.6208955 C78.1231343,38.5761194 78.0559701,38.5268657 77.9850746,38.4776119 C77.7538221,38.3153485 77.5415439,38.1276024 77.3522388,37.9179104 C77.1632072,37.7042211 77.0042733,37.4656947 76.8798507,37.2089552 C76.6878321,36.8234667 76.5744365,36.4036237 76.5462687,35.9738806 C76.5208955,35.5559701 76.5731343,35.1529851 76.7059701,34.7649254 C76.8356654,34.3741884 77.0410689,34.0128304 77.3104478,33.7014925 C77.5896139,33.3758228 77.9334621,33.1117738 78.3201493,32.9261194 C78.8183948,32.6750219 79.375779,32.5648353 79.9320896,32.6074627 Z M80.2373134,33.3962687 C79.8006948,33.4006124 79.3707508,33.503952 78.9798507,33.6985075 C78.6520962,33.8536039 78.35895,34.0731463 78.1179104,34.3440299 C77.8843616,34.6005496 77.7031139,34.9001786 77.5843284,35.2261194 C77.4651296,35.550616 77.4123437,35.8957544 77.4291045,36.2410448 C77.4425373,36.5970149 77.5343284,36.9432836 77.7,37.2813433 C77.7873134,37.4604478 77.8835821,37.6216418 77.991791,37.7746269 C78.0977612,37.9246269 78.2328358,38.0522388 78.4029851,38.158209 C78.5820896,38.2753731 78.7791045,38.361194 78.9932836,38.4179104 C79.208209,38.4701493 79.4231343,38.4940299 79.6432836,38.4962687 C79.863421,38.4947532 80.082606,38.4671985 80.2962687,38.4141791 C80.5049374,38.3622412 80.7075496,38.2884503 80.9007463,38.1940299 C81.2263374,38.0362348 81.519233,37.8170698 81.7626866,37.5485075 C81.9960545,37.2915812 82.177725,36.992091 82.2977612,36.6664179 C82.4153398,36.3404429 82.4685618,35.9947531 82.4544776,35.6485075 C82.4390113,35.2870442 82.3477343,34.9328689 82.1865672,34.6089552 C82.1036103,34.4366348 82.0038746,34.2729084 81.888806,34.1201493 C81.7757082,33.9684373 81.6367692,33.8378347 81.4783582,33.7343284 C81.2949069,33.6153293 81.0932456,33.5271024 80.8813433,33.4731343 C80.6702809,33.423146 80.454212,33.3973579 80.2373134,33.3962687 Z M26.6731343,23.3171642 C27.082994,23.319287 27.4884399,23.4019483 27.8664179,23.5604478 C28.2628592,23.7252384 28.6204994,23.9710366 28.9164179,24.2820896 C29.3088833,24.6748392 29.5907605,25.1641986 29.7335821,25.7007463 C29.8777372,26.2395444 29.8720605,26.8074746 29.7171642,27.3432836 L29.6485075,27.5791045 C29.6253731,27.658209 29.6037313,27.7395522 29.5776119,27.8208955 C29.4961935,28.0916468 29.3837559,28.3520812 29.2425373,28.5970149 C29.1008148,28.8449222 28.9241253,29.0711251 28.7179104,29.2686567 C28.1157071,29.867358 27.3006629,30.2028223 26.4514925,30.2014965 C26.0408957,30.1976764 25.6347353,30.1161405 25.2544776,29.961194 C24.8574407,29.7965157 24.4987014,29.5515974 24.2007463,29.241791 C23.8059771,28.8473929 23.526284,28.3527697 23.391791,27.811194 C23.2584643,27.2711934 23.2651427,26.7061019 23.411194,26.169403 C23.4320896,26.0925373 23.4529851,26.0104478 23.4753731,25.9343284 C23.4955224,25.858209 23.5186567,25.7791045 23.5402985,25.7 C23.619403,25.4179104 23.7320896,25.1559701 23.8701493,24.9134328 C24.011194,24.6716418 24.1873134,24.4477612 24.3985075,24.2395522 C24.7047042,23.9365122 25.0692976,23.6988664 25.4701493,23.5410448 C25.8527359,23.3887805 26.2613853,23.3127292 26.6731343,23.3171642 Z M26.5067164,24.2925373 C26.1613554,24.2826939 25.817385,24.3402335 25.4940299,24.4619403 C25.1535723,24.5887564 24.84435,24.7872695 24.5873134,25.0440299 C24.4497794,25.1763321 24.325553,25.3218046 24.2164179,25.4783582 C24.1091474,25.6343081 24.0286865,25.8070847 23.9783582,25.9895522 C23.9243504,26.2007068 23.9041992,26.4190952 23.9186567,26.6365672 C23.9525637,27.0723647 24.0924408,27.493277 24.3261194,27.8626866 C24.4404426,28.0475416 24.5751131,28.2190087 24.7276119,28.3738806 C25.2226383,28.8895883 25.8983762,29.1932155 26.6126866,29.2208955 C27.3285783,29.2448964 28.0225952,28.9721505 28.530597,28.4671642 C28.669403,28.3276119 28.7970149,28.1873134 28.9059701,28.0358209 C29.0179104,27.8880597 29.0955224,27.7186567 29.1440299,27.5246269 C29.2,27.3179104 29.219403,27.1044776 29.2022388,26.8850746 C29.188021,26.6656304 29.1456333,26.4489267 29.0761194,26.2402985 C28.9345543,25.8279647 28.7016389,25.4529529 28.3947761,25.1432836 L28.3947761,25.1425373 C28.1437017,24.8816755 27.8447207,24.6716287 27.5141791,24.5238806 C27.1962848,24.3829221 26.8542589,24.3043828 26.5067164,24.2925373 Z M64.9171642,17.219403 L68.5141791,19.0791045 L67.9492537,19.5813433 L65.6544776,18.3962687 L64.7365672,20.1664179 L67.2731343,21.4753731 L66.7052239,21.9873134 L64.4097015,20.8 L63.388806,22.769403 L65.9253731,24.0828358 L65.3604478,24.5858209 L62.2164179,22.9567164 L64.9432836,17.6828358 L64.9171642,17.219403 Z M40.611194,15.1992537 L42.3186567,20.3268657 C42.2502987,20.4358884 42.1742342,20.5398848 42.0910448,20.6380597 C42.0067164,20.7373134 41.9238806,20.8320896 41.8402985,20.9291045 C41.7067164,21.0813433 41.5865672,21.2201493 41.4723881,21.3447761 C41.3636804,21.4636011 41.2464543,21.5743424 41.1216418,21.6761194 C40.9929763,21.7774709 40.8561974,21.8680745 40.7126866,21.9470149 C40.5469072,22.0344341 40.3738737,22.107343 40.1955224,22.1649254 C39.9283309,22.2536798 39.646776,22.291153 39.3656716,22.2753731 C39.0965264,22.259547 38.8330975,22.191091 38.5902985,22.0738806 C38.3483993,21.9582387 38.1312094,21.7968036 37.9507463,21.5985075 C37.7652414,21.3877691 37.6245747,21.1414755 37.5373134,20.8746269 L36.2708955,17.0671642 L35.9201493,16.761194 L37.0514925,16.3865672 L38.361194,20.3149254 C38.4320896,20.5261194 38.5328358,20.7104478 38.6723881,20.869403 C38.9445237,21.1830658 39.3292604,21.3769088 39.7432836,21.4089552 C39.9529851,21.4298507 40.1597015,21.4037313 40.3686567,21.3350746 C40.6007463,21.2604478 40.7902985,21.1619403 40.9380597,21.0447761 C41.0850746,20.930597 41.2350746,20.7746269 41.3858209,20.5843284 L39.8216418,15.8873134 L39.4716418,15.5783582 L40.611194,15.1992537 Z M53.2835821,14.0768657 C53.8691838,14.1303382 54.4229106,14.3675004 54.8656716,14.7544776 L54.4746269,15.569403 C54.2498033,15.3568294 53.9999588,15.1723905 53.730597,15.0201493 C53.4596082,14.8689024 53.1598341,14.7763513 52.8507463,14.7485075 C52.7815639,14.7446788 52.7121856,14.7464258 52.6432836,14.7537313 C52.571492,14.7576022 52.5008592,14.7734946 52.4343284,14.8007463 C52.4164179,14.8119403 52.4007463,14.8201493 52.3895522,14.8320896 C52.2630856,14.9278885 52.1593661,15.0504661 52.0858209,15.1910448 C52.0179367,15.317745 51.9763104,15.4568379 51.9634328,15.6 C51.9380597,15.8925373 51.9932836,16.1253731 52.1276119,16.2940299 C52.2604478,16.4641791 52.4358209,16.6052239 52.6485075,16.719403 C52.8634328,16.8343284 53.0985075,16.9358209 53.3529851,17.0276119 C53.6067164,17.1216418 53.8410448,17.2358209 54.0514925,17.3768657 C54.2641791,17.5179104 54.4358209,17.6977612 54.5664179,17.9171642 C54.6947761,18.1410448 54.7455224,18.4343284 54.711194,18.8052239 C54.6867109,19.1161731 54.5798096,19.4149817 54.4014925,19.6708955 C54.2223881,19.9291045 53.9858209,20.1231343 53.6970149,20.2544776 L53.2514925,20.4619403 C52.9404266,20.6034608 52.5976606,20.6608458 52.2574627,20.6283582 C51.945379,20.6030279 51.6391846,20.5289974 51.35,20.4089552 C51.058897,20.2881695 50.7904073,20.1188494 50.5559701,19.908209 L50.9477612,19.0932836 C51.2014925,19.3380597 51.4671642,19.5365672 51.7470149,19.6895522 C52.0291045,19.8455224 52.3455224,19.9380597 52.6992537,19.9686567 C52.8605111,19.9802538 53.0224505,19.9591864 53.1753731,19.9067164 C53.3366391,19.8226142 53.4660709,19.6882043 53.5440299,19.5238806 C53.6380597,19.3470149 53.6932836,19.1776119 53.7052239,19.0156716 C53.7276119,18.7858209 53.6992537,18.588806 53.6268657,18.430597 C53.5555081,18.2772621 53.4503991,18.1420491 53.319403,18.0350746 C53.1803454,17.9216121 53.0267468,17.8272444 52.8626866,17.7544776 C52.6874378,17.6754608 52.5107928,17.5995781 52.3328358,17.5268657 C52.1522191,17.4541981 51.974929,17.3735211 51.8014925,17.2850746 C51.6340328,17.2019689 51.4812747,17.0920638 51.3492537,16.9597015 C51.2166567,16.8280766 51.1138452,16.6695331 51.0477612,16.4947761 C50.9776119,16.3126866 50.9529851,16.0873134 50.9753731,15.8201493 C51.0222047,15.2271309 51.383377,14.7047413 51.9216418,14.4514925 L52.3768657,14.2380597 C52.6594582,14.10486 52.972396,14.0492266 53.2835821,14.0768657 Z" id="path-1"></path>
    </defs>
    <g id="Homepage" stroke="none" stroke-width="1" fill="none" fill-rule="evenodd" opacity="0.3">
        <g id="THOR-KBIS_HP-Tablet" transform="translate(-608.000000, -852.000000)">
            <g id="thor-seal" transform="translate(608.000000, 852.000000)">
                <mask id="mask-2" fill="white">
                    <use xlink:href="#path-1"></use>
                </mask>
                <use id="Combined-Shape" fill="#FFFFFF" fill-rule="nonzero" xlink:href="#path-1"></use>
                <g id="Colors/Gold" mask="url(#mask-2)" fill="#FFFFFF">
                    <rect id="Rectangle" x="0" y="0" width="100" height="102"></rect>
                </g>
            </g>
        </g>
    </g>
</svg>