<?xml version="1.0" encoding="UTF-8"?>
<svg width="151px" height="22px" viewBox="0 0 151 22" version="1.1" xmlns="http://www.w3.org/2000/svg" xmlns:xlink="http://www.w3.org/1999/xlink">
    <title>Logo/VA/Horizontal/Black</title>
    <defs>
        <path d="M76.8704178,7.55219316e-05 C82.7447189,7.55219316e-05 87.5237916,4.65486978 87.5237916,10.3764113 C87.5237916,16.0975752 82.7447189,20.7523695 76.8704178,20.7523695 C70.9965043,20.7523695 66.2170439,16.0975752 66.2170439,10.3764113 C66.2170439,4.65486978 70.9965043,7.55219316e-05 76.8704178,7.55219316e-05 Z M76.8704178,0.701296657 C71.3931127,0.701296657 66.9369869,5.04154207 66.9369869,10.3764113 C66.9369869,15.7112806 71.3931127,20.0511484 76.8704178,20.0511484 C82.3477228,20.0511484 86.8038486,15.7112806 86.8038486,10.3764113 C86.8038486,5.04154207 82.3477228,0.701296657 76.8704178,0.701296657 Z M108.763352,2.8462328 L108.763352,9.25577913 L108.807162,9.25577913 C109.139026,8.42541549 109.687221,7.79971629 110.451361,7.37868152 C111.215889,6.95764675 112.052139,6.74694056 112.959337,6.74580773 C114.030141,6.75675841 114.917179,6.99805099 115.619676,7.46893023 C116.322561,7.93980947 116.845944,8.57570414 117.192153,9.37623661 C117.53681,10.1771467 117.709721,11.0777457 117.708948,12.0765233 C117.695376,13.3381171 117.518589,14.3561528 117.178583,15.1310078 C116.838966,15.9069956 116.412893,16.4953115 115.900752,16.8967106 C115.389,17.2984872 114.868718,17.5692334 114.339131,17.7097042 C113.81032,17.8494197 113.35013,17.9151238 112.959337,17.905306 C112.006392,17.8826494 111.23411,17.697243 110.642493,17.3471989 C110.051264,16.9963995 109.610071,16.6153914 109.31969,16.2030416 C109.028921,15.7906919 108.858725,15.4799191 108.807162,15.2707234 L108.807162,15.2707234 L108.763352,15.2707234 L108.763352,17.6572164 L107.954628,17.6572164 L107.954628,2.8462328 L108.763352,2.8462328 Z M35.3281137,6.74573221 C36.4027945,6.75894855 37.3134818,7.01647834 38.0605632,7.5194544 C38.8076447,8.02243047 39.3756127,8.69382044 39.7656303,9.53324671 C40.1552602,10.372673 40.3514321,11.3034808 40.3537583,12.3256701 C40.3514321,13.3478595 40.1552602,14.2790449 39.7656303,15.1184712 C39.3756127,15.9578974 38.8076447,16.6289098 38.0605632,17.1311306 C37.3134818,17.6344843 36.4027945,17.8923917 35.3281137,17.9052304 C34.2538207,17.8923917 33.3431334,17.6344843 32.5956643,17.1311306 C31.8489705,16.6289098 31.2802271,15.9578974 30.8905972,15.1184712 C30.5009673,14.2790449 30.3047954,13.3478595 30.3020815,12.3256701 C30.3047954,11.3034808 30.5009673,10.372673 30.8905972,9.53324671 C31.2802271,8.69382044 31.8489705,8.02243047 32.5956643,7.5194544 C33.3431334,7.01647834 34.2538207,6.75894855 35.3281137,6.74573221 Z M124.160015,6.74592102 C125.301767,6.75951497 126.237266,7.02497455 126.964963,7.54192218 C127.693435,8.0588698 128.222634,8.74498655 128.553723,9.60065003 C128.884036,10.4563135 129.02438,11.3992048 128.973592,12.429324 L128.973592,12.429324 L120.13539,12.429324 C120.121433,13.2781905 120.262165,14.065129 120.558749,14.7871187 C120.854558,15.5102412 121.303504,16.0925153 121.905202,16.5362066 C122.506511,16.979898 123.258633,17.2083518 124.160015,17.2211905 C125.203293,17.2113727 126.066682,16.9289207 126.750182,16.3730792 C127.43407,15.8168602 127.877201,15.04125 128.078413,14.0473814 L128.078413,14.0473814 L128.887525,14.0473814 C128.666928,15.2972693 128.151299,16.2507337 127.338698,16.9096626 C126.526484,17.5682138 125.467311,17.9001327 124.160015,17.9050416 C123.093864,17.8933357 122.199847,17.6452462 121.477578,17.1615282 C120.755309,16.6778102 120.212928,16.0309649 119.850437,15.2198594 C119.487558,14.4087538 119.312709,13.5058891 119.326278,12.5123981 C119.311158,11.5204175 119.478253,10.5892321 119.826788,9.71770903 C120.175322,8.84618594 120.710336,8.13741261 121.431055,7.59101143 C122.150223,7.04461026 123.060134,6.76329106 124.160015,6.74592102 Z M18.8020283,6.74028812 C20.0092995,6.73617869 21.0281527,7.02429486 21.8578124,7.60392568 C22.6874722,8.1831789 23.174025,9.07773618 23.3166954,10.2872199 L23.3166954,10.2872199 L22.5075833,10.2872199 C22.4118235,9.34206294 22.022969,8.6291359 21.3414074,8.1480612 C20.6602335,7.6669865 19.8135153,7.42569392 18.8020283,7.42456109 C17.8851379,7.43891026 17.1136319,7.67340586 16.4875102,8.12767028 C15.8617762,8.5819347 15.3887926,9.17138337 15.067784,9.89526109 C14.7471632,10.6195164 14.5862712,11.3924834 14.5854958,12.21605 C14.5847205,13.1857516 14.7394094,14.044436 15.0491748,14.7939912 C15.3585526,15.5424135 15.8257209,16.1318622 16.4499041,16.5596939 C17.0740874,16.9886585 17.8583872,17.2065393 18.8020283,17.2152243 C19.8379399,17.1986095 20.6943503,16.8889696 21.3708719,16.2870598 C22.0473935,15.6840171 22.461448,14.8876384 22.6141985,13.8967906 L22.6141985,13.8967906 L23.4233106,13.8967906 C23.2201602,15.179153 22.700266,16.1658471 21.8636278,16.8549847 C21.0266019,17.5437447 20.0058103,17.892656 18.8020283,17.899453 C17.6203447,17.8847262 16.6588698,17.6132249 15.9183791,17.0853266 C15.1775007,16.5578059 14.6347327,15.8648922 14.2885242,15.0080959 C13.9427034,14.1509219 13.7721191,13.2197365 13.7755559,12.21605 C13.7783222,11.2146292 13.9725556,10.3023243 14.3594717,9.47800241 C14.7467755,8.65443575 15.3135804,7.99512929 16.0602742,7.50083825 C16.806968,7.0065472 17.7207568,6.75279351 18.8020283,6.74028812 Z M96.8885954,6.73640525 C97.5391417,6.72960828 98.154408,6.80739587 98.7343945,6.96825758 C99.3139932,7.12949691 99.7865891,7.41270415 100.153733,7.81787931 C100.520489,8.22305448 100.709683,8.78909135 100.721701,9.51598995 L100.721701,9.51598995 L100.721701,15.6763139 C100.706969,16.0025687 100.737209,16.2937057 100.812421,16.5527459 C100.887245,16.8106533 101.098537,16.947348 101.445909,16.9620748 C101.591293,16.9620748 101.789791,16.9416839 102.042178,16.8997692 L102.042178,16.8997692 L102.042178,17.5639846 C101.811502,17.611941 101.591293,17.6402617 101.382327,17.6470587 C100.761245,17.6364856 100.356496,17.4858194 100.168465,17.1958152 C99.9792718,16.9054333 99.8939796,16.5372639 99.9125888,16.0905517 L99.9125888,16.0905517 L99.9125888,15.5305566 L99.8699428,15.5305566 C99.607088,16.1834437 99.1259628,16.735509 98.4273428,17.1878854 C97.7275597,17.6402617 96.8525401,17.8766454 95.8022839,17.8955259 C94.7458246,17.9110079 93.877008,17.6889734 93.1958341,17.2316881 C92.5150479,16.7744028 92.1626364,15.9938836 92.1393749,14.8874873 C92.1552702,14.0676968 92.3696636,13.4374662 92.7810043,12.9967958 C93.1919572,12.5549925 93.7040977,12.2442197 94.3162625,12.0637223 C94.928815,11.8839801 95.5448567,11.7733405 96.1643877,11.7352019 C97.3507236,11.6619456 98.2125617,11.5622567 98.7506775,11.4361351 C99.2880179,11.310391 99.6253095,11.1019505 99.7610015,10.8100582 C99.8966935,10.5185436 99.9540718,10.0869357 99.9331365,9.51598995 C99.9428288,9.33964624 99.8637397,9.0881582 99.6981955,8.76077063 C99.5318758,8.43300545 99.2279257,8.13205055 98.785182,7.85790594 C98.3428261,7.58376133 97.7105013,7.43762639 96.8885954,7.42063395 C95.8980437,7.42403244 95.1048269,7.66645784 94.5108836,8.14904298 C93.917328,8.63200574 93.5881779,9.33624775 93.5234334,10.2625242 L93.5234334,10.2625242 L92.714709,10.2625242 C92.7740258,9.09004625 93.1605542,8.20908292 93.8746819,7.62038946 C94.5891973,7.0313184 95.5940936,6.73678286 96.8885954,6.73640525 Z M55.9718316,6.73640525 C56.6223778,6.72998589 57.2376442,6.80739587 57.817243,6.96825758 C58.3972294,7.12949691 58.870213,7.41270415 59.2373568,7.81787931 C59.6037252,8.22305448 59.7933064,8.78909135 59.8049371,9.51598995 L59.8049371,9.51598995 L59.8049371,15.6763139 C59.7902048,16.0025687 59.8200571,16.2937057 59.8956569,16.5527459 C59.9708691,16.8106533 60.1821609,16.947348 60.5287571,16.9620748 C60.6745291,16.9620748 60.8734148,16.9416839 61.1250266,16.8997692 L61.1250266,16.8997692 L61.1250266,17.5639846 C60.8947378,17.611941 60.6745291,17.6402617 60.4651757,17.6470587 C59.8448693,17.6364856 59.4405071,17.4858194 59.2513137,17.1958152 C59.062508,16.9054333 58.9768281,16.5372639 58.995825,16.0913069 L58.995825,16.0913069 L58.995825,15.5305566 L58.953179,15.5305566 C58.6903241,16.1834437 58.2095867,16.735509 57.510579,17.1878854 C56.8111836,17.6402617 55.9361639,17.8766454 54.8855201,17.8955259 C53.8290608,17.9110079 52.9602442,17.6889734 52.2790703,17.2316881 C51.5986718,16.7744028 51.2462602,15.9938836 51.2222234,14.8874873 C51.2385064,14.0676968 51.4525121,13.4374662 51.8638528,12.9967958 C52.2748057,12.5549925 52.7869461,12.2442197 53.3994987,12.0637223 C54.0116635,11.8839801 54.6280929,11.7733405 55.2472362,11.7352019 C56.4335721,11.6619456 57.2957979,11.5622567 57.833526,11.4361351 C58.3720294,11.310391 58.7085456,11.1019505 58.8442377,10.8100582 C58.9799297,10.5185436 59.037308,10.0869357 59.0167604,9.51598995 C59.0256773,9.33964624 58.9469759,9.0881582 58.7814316,8.76077063 C58.615112,8.43338306 58.3111619,8.13205055 57.8684182,7.85790594 C57.4260623,7.58376133 56.7937375,7.43762639 55.9718316,7.42063395 C54.9808922,7.42403244 54.1884508,7.66645784 53.5945075,8.14904298 C53.0001765,8.63200574 52.6710264,9.33624775 52.6066696,10.2625242 L52.6066696,10.2625242 L51.7975575,10.2625242 C51.857262,9.09004625 52.2437904,8.20908292 52.9579181,7.62038946 C53.6728212,7.0313184 54.6769421,6.73678286 55.9718316,6.73640525 Z M26.9212181,3.67603002 L26.9212181,6.9948413 L29.306296,6.9948413 L29.306296,7.67907 L26.9212181,7.67907 L26.9212181,15.1262877 C26.9219935,15.6908141 27.0123256,16.1092056 27.1929898,16.3788189 C27.3740417,16.6484322 27.6396104,16.8206222 27.9904712,16.8946337 C28.3417196,16.96789 28.7732202,16.9943227 29.284973,16.9720437 L29.284973,16.9720437 L29.284973,17.6570276 C28.7216573,17.7027184 28.1947846,17.6774185 27.7051302,17.5807505 C27.2154759,17.4848376 26.8231321,17.2495868 26.5277112,16.8742428 C26.2319027,16.4988988 26.0934968,15.9166247 26.1117183,15.1262877 L26.1117183,15.1262877 L26.1117183,7.67907 L24.0883565,7.67907 L24.0883565,6.9948413 L26.1117183,6.9948413 L26.1117183,3.67603002 L26.9212181,3.67603002 Z M141.550691,3.67603002 L141.550691,6.9948413 L143.935769,6.9948413 L143.935769,7.67907 L141.550691,7.67907 L141.550691,15.1262877 C141.551079,15.6908141 141.641799,16.1092056 141.822463,16.3788189 C142.003127,16.6484322 142.269471,16.8206222 142.619944,16.8946337 C142.970805,16.96789 143.402694,16.9943227 143.914446,16.9720437 L143.914446,16.9720437 L143.914446,17.6570276 C143.351518,17.7027184 142.824258,17.6774185 142.334216,17.5807505 C141.845337,17.4848376 141.452218,17.2495868 141.156797,16.8742428 C140.861376,16.4988988 140.72297,15.9166247 140.741192,15.1262877 L140.741192,15.1262877 L140.741192,7.67907 L138.71783,7.67907 L138.71783,6.9948413 L140.741192,6.9948413 L140.741192,3.67603002 L141.550691,3.67603002 Z M0.937437973,6.9946525 L4.89809402,16.743401 L4.94074008,16.743401 L8.64668284,6.9946525 L9.54108706,6.9946525 L5.40945907,17.6572164 L4.4084397,17.6572164 L4.48530102e-13,6.9946525 L0.937437973,6.9946525 Z M104.989564,2.8464216 L104.989564,17.6570276 L104.179676,17.6570276 L104.179676,2.8464216 L104.989564,2.8464216 Z M11.6633102,6.9948413 L11.6633102,17.6570276 L10.8538104,17.6570276 L10.8538104,6.9948413 L11.6633102,6.9948413 Z M49.1367922,6.9948413 L49.1367922,17.6570276 L48.3272924,17.6570276 L48.3272924,6.9948413 L49.1367922,6.9948413 Z M47.2910319,6.92030116 L47.2910319,7.70837251 C46.8537159,7.64795497 46.3656123,7.69138008 45.8267212,7.83827024 C45.2882177,7.98516039 44.7683235,8.28762573 44.2670384,8.74566624 C43.8665531,9.12742961 43.5703568,9.54053457 43.3776742,9.98498114 C43.1853792,10.4290501 43.0698472,11.0396449 43.0318534,11.8156328 L43.0318534,11.8156328 L43.0318534,17.6444154 L42.2223536,17.6444154 L42.2223536,6.98260675 L43.0318534,6.98260675 L43.0318534,9.34719843 L43.0954348,9.34719843 C43.3330897,8.63276096 43.8382517,8.0440675 44.6105331,7.58149567 C45.3828145,7.11892384 46.2764433,6.89802219 47.2910319,6.92030116 L47.2910319,6.92030116 Z M136.458364,6.92030116 L136.458364,7.70837251 C136.021048,7.64795497 135.532944,7.69138008 134.994053,7.83827024 C134.455162,7.98516039 133.935268,8.28762573 133.433983,8.74566624 C133.033498,9.12742961 132.737301,9.54053457 132.545006,9.98498114 C132.352711,10.4290501 132.237179,11.0396449 132.199185,11.8156328 L132.199185,11.8156328 L132.199185,17.6444154 L131.389298,17.6444154 L131.389298,6.98260675 L132.199185,6.98260675 L132.199185,9.34719843 L132.262767,9.34719843 C132.500034,8.63276096 133.005196,8.0440675 133.777477,7.58149567 C134.550147,7.11892384 135.443388,6.89802219 136.458364,6.92030116 L136.458364,6.92030116 Z M112.959337,7.43079165 C111.536897,7.45684672 110.483927,7.89713958 109.80159,8.7501598 C109.119641,9.60393524 108.780411,10.7122196 108.785,12.0765233 C108.781574,12.9627731 108.921531,13.7954024 109.204933,14.5721455 C109.488723,15.3488886 109.93767,15.9813847 110.552161,16.467746 C111.16704,16.9544848 111.968786,17.2055953 112.959337,17.2210773 C113.913058,17.2025744 114.679524,16.9397581 115.258348,16.4318731 C115.837559,15.9224776 116.257041,15.2786532 116.516406,14.4988892 C116.775772,13.7179925 116.904098,12.9110406 116.899058,12.0765233 C116.899058,11.2752356 116.752123,10.5234148 116.459416,9.8214384 C116.167096,9.11946204 115.728617,8.54851624 115.144754,8.10935621 C114.561666,7.67057379 113.832806,7.44400799 112.959337,7.43079165 Z M35.3281137,7.43071613 C34.4112234,7.44355486 33.6397174,7.67767285 33.0139834,8.13269249 C32.3878616,8.58771212 31.9148781,9.18433538 31.5942572,9.92293987 C31.2732487,10.6615444 31.1123567,11.4616992 31.1115813,12.3256701 C31.1123567,13.1892634 31.2732487,13.9905511 31.5942572,14.7284004 C31.9148781,15.4670049 32.3878616,16.0643834 33.0139834,16.5186478 C33.6397174,16.974045 34.4112234,17.2074078 35.3281137,17.2210017 C36.2450041,17.2074078 37.0165101,16.974045 37.6422441,16.5186478 C38.2679782,16.0643834 38.7413494,15.4670049 39.0619703,14.7284004 C39.3829788,13.9905511 39.5434831,13.1892634 39.5450339,12.3256701 C39.5434831,11.4616992 39.3829788,10.6615444 39.0619703,9.92293987 C38.7413494,9.18433538 38.2679782,8.58771212 37.6422441,8.13269249 C37.0165101,7.67767285 36.2450041,7.44355486 35.3281137,7.43071613 Z M99.9125888,11.5898222 C99.5663804,11.919853 99.0236123,12.1203638 98.2831216,12.191732 C97.5434063,12.2619674 96.7656972,12.3382445 95.9515451,12.4201858 C94.9881318,12.5130778 94.2472534,12.7517271 93.7304607,13.1327353 C93.214831,13.5148762 92.953527,14.1001712 92.948487,14.8874873 C92.948487,15.5471714 93.1876926,16.0954606 93.667267,16.532355 C94.1464536,16.9681165 94.8656213,17.1946823 95.8239946,17.2112972 C96.7373957,17.1965704 97.4685818,17.033443 98.0167776,16.7226703 C98.5645856,16.4118975 98.9767016,16.0395744 99.2500241,15.6068337 C99.5229589,15.1729602 99.7040108,14.7655194 99.7912414,14.3845113 C99.8800228,14.0035031 99.9195673,13.7354003 99.9125888,13.5813355 Z M58.995825,11.5898222 C58.6496165,11.919853 58.1064608,12.121119 57.3663578,12.191732 C56.6266425,12.2631002 55.8493211,12.3382445 55.0347813,12.4201858 C54.0709803,12.5130778 53.3304896,12.7517271 52.8144722,13.1327353 C52.2980672,13.5148762 52.0371508,14.1001712 52.0321109,14.8874873 C52.0321109,15.5471714 52.2713165,16.0954606 52.7505031,16.532355 C53.2296898,16.9681165 53.9484698,17.1946823 54.9068431,17.2112972 C55.8202442,17.1965704 56.5514303,17.033443 57.1000137,16.7226703 C57.6485972,16.4118975 58.0595501,16.0395744 58.3328726,15.6068337 C58.6061951,15.1729602 58.7868593,14.7655194 58.8748653,14.3845113 C58.9628712,14.0035031 59.0031912,13.7354003 58.995825,13.5813355 L58.995825,13.5813355 Z M77.230273,3.9190596 L77.230273,10.0253854 L83.4996317,10.0253854 L83.4996317,10.7262289 L77.230273,10.7262289 L77.230273,16.8333099 L76.5103299,16.8333099 L76.5103299,10.7262289 L70.2409712,10.7262289 L70.2409712,10.0253854 L76.5103299,10.0253854 L76.5103299,3.9190596 L77.230273,3.9190596 Z M124.160015,7.43052733 C123.349352,7.44449888 122.654609,7.66049161 122.075398,8.0785055 C121.496962,8.49727461 121.043363,9.03272511 120.714601,9.68598981 C120.386614,10.3392545 120.193544,11.0261265 120.13539,11.7450953 L120.13539,11.7450953 L128.163705,11.7450953 C128.14781,10.9868551 127.981878,10.2814802 127.665134,9.63048119 C127.349553,8.97985975 126.896342,8.45309428 126.305887,8.05131761 C125.715046,7.64916332 125.000143,7.44223323 124.160015,7.43052733 Z M147.836178,1.18916833 C148.261088,1.19332204 148.646841,1.29263338 148.994988,1.48672475 C149.342359,1.68081611 149.620334,1.94552048 149.828137,2.28046025 C150.03594,2.61577762 150.142942,2.99640816 150.147982,3.42235185 C150.142942,3.85698057 150.03594,4.24327525 149.828137,4.58123589 C149.620334,4.91957415 149.342359,5.18654417 148.994988,5.38139076 C148.646841,5.57623734 148.261088,5.67592629 147.836178,5.68008 C147.410493,5.67592629 147.022026,5.57623734 146.671941,5.38139076 C146.323406,5.18654417 146.043493,4.91957415 145.834527,4.58123589 C145.625174,4.24327525 145.518171,3.85698057 145.512743,3.42235185 C145.518171,2.99640816 145.625174,2.61577762 145.834527,2.28046025 C146.043493,1.94552048 146.323406,1.68081611 146.671941,1.48672475 C147.022026,1.29263338 147.410493,1.19332204 147.836178,1.18916833 Z M147.836178,1.51957679 C147.473687,1.52297527 147.149189,1.60793745 146.86346,1.7740857 C146.577344,1.94023394 146.351707,2.16604452 146.186163,2.45151742 C146.020231,2.73699032 145.935715,3.0606018 145.931838,3.42235185 C145.935715,3.79240932 146.020231,4.12168494 146.186163,4.41055633 C146.351707,4.69942772 146.577344,4.92750395 146.86346,5.09402981 C147.149189,5.26093328 147.473687,5.34627306 147.836178,5.34967155 C148.195956,5.34627306 148.516964,5.26093328 148.80153,5.09402981 C149.08532,4.92750395 149.309793,4.69942772 149.475725,4.41055633 C149.64127,4.12168494 149.725011,3.79240932 149.7285,3.42235185 C149.725011,3.0606018 149.64127,2.73699032 149.475725,2.45151742 C149.309793,2.16604452 149.08532,1.94023394 148.80153,1.7740857 C148.516964,1.60793745 148.195956,1.52297527 147.836178,1.51957679 Z M11.6633102,2.84604399 L11.6633102,4.98293705 L10.8538104,4.98293705 L10.8538104,2.84604399 L11.6633102,2.84604399 Z M49.1367922,2.84604399 L49.1367922,4.98293705 L48.3272924,4.98293705 L48.3272924,2.84604399 L49.1367922,2.84604399 Z M147.978771,2.11962568 C148.613034,2.11774824 148.927452,2.36772584 148.921637,2.87032429 C148.917372,3.10481989 148.848751,3.27776511 148.717323,3.38953757 C148.585508,3.50131003 148.417638,3.56625889 148.212549,3.58476177 L148.212549,3.58476177 L148.983667,4.7432682 L148.53317,4.7432682 L147.79927,3.61459293 L147.355751,3.61459293 L147.355751,4.7432682 L146.936656,4.7432682 L146.936656,2.11962568 Z M147.910537,2.45004474 L147.355751,2.45004474 L147.355751,3.28456209 L147.931957,3.2850459 C148.065347,3.28033758 148.183472,3.26001746 148.286986,3.22376693 C148.423841,3.1754329 148.496339,3.05157693 148.502155,2.85219903 C148.495176,2.6830299 148.43237,2.57276788 148.312573,2.52065775 C148.193164,2.46854762 148.059023,2.44475821 147.910537,2.45004474 L147.910537,2.45004474 Z" id="path-1"></path>
    </defs>
    <g id="Nav" stroke="none" stroke-width="1" fill="none" fill-rule="evenodd">
        <g id="THOR-KBIS_Nav-Tablet" transform="translate(-564.000000, -760.000000)">
            <g id="Showrooms" transform="translate(52.000000, 676.000000)">
                <g id="All-Brands/Horizontal" transform="translate(0.000000, 66.000000)">
                    <g id="Logo/VA/Horizontal/Black" transform="translate(512.874169, 18.680618)">
                        <mask id="mask-2" fill="white">
                            <use xlink:href="#path-1"></use>
                        </mask>
                        <use id="Combined-Shape" fill="#84754E" xlink:href="#path-1"></use>
                        <g id="Colors/Black" mask="url(#mask-2)" fill="#FFFFFF">
                            <rect id="Rectangle" x="0" y="0" width="157.729305" height="21.3371664"></rect>
                        </g>
                    </g>
                </g>
            </g>
        </g>
    </g>
</svg>